<svg xmlns="http://www.w3.org/2000/svg" width="593" height="289" viewBox="0 0 593 289"><title>footer4</title><rect x="-3.00009" width="596.00019" height="235.60363" style="fill:#00a1b3"/><path d="M603.26009,75.82869s-21.76179,1.06709-38.82987,3.101a63.74738,63.74738,0,0,0-10.78607,1.88756,48.22968,48.22968,0,0,1-11.05573,1.88756c-5.393.5393-17.0418,1.383-21.97663,2.292a200.74148,200.74148,0,0,1-21.57215,3.50547c-16.98807,1.75274-32.27508,3.47389-33.302,3.37065-1.798-.179-22.3358-1.61791-23.05523-1.07861-.35391.26546-4.78106,5.77963-9.03334,10.51642-4.40192,4.90434-6.87612,7.68508-8.494,9.303s-7.45762,5.46683-8.76369,6.33682c-1.07969.71943-4.53878.58461-5.79751.94378s-3.72982,3.05569-4.44926,3.23582-5.16869-1.66321-7.14577-.40448-3.52555.296-6.83082,1.34826l-5.93234,1.43778,1.07861,6.47164H608.06853Z" style="fill:#007890"/><path d="M404.39185,129.89389s8.89851-7.8199,19.41493-15.90946a67.96586,67.96586,0,0,0,11.595-11.86468c1.88756-2.69652,6.7413-7.55025,7.2806-8.62886s4.04478-1.07861,5.393-1.07861,16.75216,1.50414,19.41493,1.07861c6.7413-1.07861,36.32715-2.99247,49.34629-5.93234,16.71842-3.77513,29.39205-1.34826,38.02091-5.393,4.09318-1.91915,53.66072-5.12339,53.66072-5.12339l4.04478,52.58211Z" style="fill:#965025"/><path d="M454.95157,94.70432c1.61791,0,.5393,1.48309-.40448,1.75274s-6.41579,6.65492-7.55025,5.66269c-1.07861-.94378,4.04478-4.98856,1.34826-4.85373-1.24193.06215-1.64738,1.02491-3.37065,2.02239-2.56169,1.48309-5.393,10.11194-5.79751,10.9209s2.42687,4.04478-1.34826,3.77513c-2.9704-.21171-1.41785,3.05462-3.37065,3.50547-.988.2275-1.04174-.78888-2.15721-1.21343a9.268,9.268,0,0,0-5.12339,0c-2.113.69205-2.02239,4.31443-4.44926,3.101-1.73906-.869-.94378-1.34826-.40448-1.88756.20222-.20222,5.037-3.61084,6.7413-5.25821,2.8461-2.75021,6.48737-7.3975,8.08956-9.16816a92.06686,92.06686,0,0,0,7.2806-8.494C444.8807,93.95018,453.33366,94.70432,454.95157,94.70432Zm-1.48309,9.303c-1.07861.94378-9.19342,7.83891-9.43781,8.89851-.26439,1.146,1.16813-.32443,2.96617-.26965.9511.02946,2.00554.98177,2.96617,1.88756,1.08076,1.0207,2.42687,1.48309,3.23582,1.07861a1.57559,1.57559,0,0,0,.94378-1.61791c-.20442-1.32613-1.64425-2.57322-1.34826-4.31443a28.06906,28.06906,0,0,0,2.83134-6.47164C455.89536,102.659,454.5471,103.06353,453.46849,104.00731Zm4.71891-8.62886c-.10853.54353,1.53042.8669,1.75274,1.61791.33068,1.11444-2.69652,3.85733-2.69652,4.1796,0,.5393,2.96617-.809,3.6403-1.07861s5.25821-3.50547,4.85373-3.91S458.457,94.03019,458.1874,95.37845Zm16.44876-.809c-3.23582,2.15721-6.60647,1.61791-7.14577,2.15721s.5393,2.69652-.26965,3.23582a9.18317,9.18317,0,0,0-2.69652,1.34826,15.48277,15.48277,0,0,0-2.69652,4.1796c-.26965.5393-3.37065,1.34826-4.04478,2.292s3.23582.94378,3.77513.67413.40448-2.42687,1.07861-2.69652,4.71891-.26965,6.7413-2.83134,1.07861-5.93234,1.75274-6.202,2.292-1.21343,2.83134-.5393.809,4.58408.809,4.58408a3.30105,3.30105,0,0,0,2.42687-.26965,9.07789,9.07789,0,0,0,1.88756-2.292,11.51888,11.51888,0,0,1,3.37065-.13483,4.516,4.516,0,0,1,2.02239,1.61791s1.21343.26965.94378-1.21343c-.20647-1.13338-.454-2.983-1.21343-2.56169-1.21343.67413-4.1796,1.34826-4.85373,1.07861s.13483-3.101-.26965-3.23582A9.52858,9.52858,0,0,0,474.63616,94.56949Zm6.87612,8.35921c-.94378.67413-6.7413,4.04478-7.55025,4.85373s2.56169,2.15721,3.23582,2.15721,2.83134-4.1796,5.25821-5.52786C483.14279,104.03052,482.45606,102.25457,481.51228,102.9287Zm4.58408-7.68508c-.809.40448-.13483.5393.5393,1.21343s2.292-.13483,2.292,1.07861-1.21343,1.75274-1.48309,2.96617a1.32779,1.32779,0,0,0,1.88756,1.61791c1.21343-.5393,2.15721-4.44926,2.15721-4.44926s2.04664-2.47948,3.101-2.83134c2.42687-.809,4.98856.809,7.95473-.26965.92273-.33489-.90271-3.21682-2.15721-2.96617-2.02239.40448-4.44926,2.02239-5.393,2.292s-2.02239-.94378-3.101-.67413A58.15126,58.15126,0,0,0,486.09636,95.24362ZM516.02772,91.873c-.67413.94378-.67413,3.101-1.61791,4.1796s-2.56169,1.48309-3.37065,2.42687a7.57621,7.57621,0,0,0-1.48309,3.50547c0,.67413,2.31413-.179,4.44926-1.75274a13.58217,13.58217,0,0,0,3.91-4.31443c.26965-.809-.336-.6383-.67413-1.61791C516.82091,93.078,516.40165,91.34944,516.02772,91.873Zm-1.07861,11.32538c.37393-.56032-4.44926-.5393-5.12339,0s-1.61791,3.101-2.15721,4.04478,1.266,1.51255,1.61791.809C510.63468,105.35557,514.14016,104.41179,514.94911,103.19835Zm16.71842-14.29155c-.809.40448-5.66269,9.70747-6.47164,10.65125s0,2.96617-.13483,3.6403-1.34826.94378-1.61791,1.48309-.809,3.6403-.26965,3.6403,3.101-4.04478,2.83134-4.98856c-.10217-.3581.64563-.37178,1.61791-1.61791,1.59049-2.03715,2.96617-4.85373,3.77513-5.52786s6.60647-2.292,7.55025-2.96617,1.88756-4.44926.809-4.58408c-.56985-.0716-2.83978.2907-4.71891.40448C533.36016,89.14487,532.04879,88.71613,531.66753,88.90681Zm.26965,12.13433a30.36051,30.36051,0,0,0-3.91,5.79752c-.67413,2.42687,2.56169,2.15721,3.37065,1.34826s1.07861-4.04478,1.34826-4.98856S532.34166,100.77149,531.93718,101.04114Z" style="fill:#c9883f"/><path d="M390.37,125.84911c3.41487.5393,8.08956-2.87665,10.24677-3.23582s5.12339,1.34826,5.93234,1.07861,3.23582-3.37065,4.85373-3.77513c.52354-.1306,2.78712-.5393,3.23582.26965a17.95463,17.95463,0,0,0,1.61791,2.15721,27.70125,27.70125,0,0,1,2.69652-1.61791c.67413-.26965,3.101.94378,4.04478,1.61791s2.83134-.26965,3.23582-.809,1.34826-4.71891,2.69652-3.77513,2.56169-.26965,2.96617.26965.5393,1.34826,1.07861,1.61791,2.292,2.42687,2.56169.13483c.059-.50563.99111-.711,1.21343-1.34826.31914-.91637-.67413-1.34826.26965-2.292.76892-.76892,3.23582-.94378,2.96617.5393s1.54207.651,1.88756,1.61791c.67413,1.88756,1.88756,0,2.15721-.26965s-.809-2.69652.5393-2.69652,1.07861-1.07861,2.15721-1.07861,2.56169,2.15721,2.96617,2.15721a2.248,2.248,0,0,1,1.61791.809c.43822.69421-.5393,2.42687.26965,2.83134.37814.18964.81951-1.009,1.61791-2.02239.908-1.15442,1.75274-2.42687,3.23582-1.88756s3.37065-.26965,4.04478.67413-.13483,2.02239.40448,2.69652,2.02239-1.48309,2.56169-1.21343a16.9989,16.9989,0,0,1,1.75274,1.21343s1.61791.28757,1.61791-1.75274c0-1.61791,1.88756,1.07861,1.61791-1.07861-.12223-.97429-2.56169-1.21343-.67413-2.69652.20222-.337,1.70213-1.23024,2.69652-.5393s.53616,2.81238,1.34826,2.69652c.94378-.13483.22012-1.18289.40448-2.292s.87214-1.80535,1.48309-1.61791c1.75274.5393,1.34826,1.21343,1.88756,2.02239s3.23582.809,4.04478.809.67413-1.88756,1.48309-2.292,1.48309-1.48309,2.83134-1.21343a4.14584,4.14584,0,0,1,1.75274.40448c.4613.28973.87419,1.07334,1.34826,1.21343.81627.24119,1.21343-.26965,2.02239.26965s-1.07861,1.75274-.809,2.69652,1.07861,2.69652,1.75274,2.83134.40448-1.21343,1.07861-1.21343.809,1.34826,1.48309,1.07861-.13483-2.02239.5393-2.292,1.88756-1.48309,2.69652-1.48309c.34438,0,.64046.76473,1.48309,1.21343,1.13759.60566,1.61791-.26965,2.83134.94378s3.77513-.40448,4.85373.809,2.42687.5393,3.23582.809c.37922.12643.84269,1.49044,2.02239,2.15721,1.33141.75213,3.23582,1.61791,3.50547,1.07861a27.463,27.463,0,0,0,.13483-4.58408s-1.75274.809-2.15721,0c-.178-.356-1.07861-1.61791-1.07861-1.61791l-1.34826-.13483s-.40448-1.34826,0-1.48309a12.02,12.02,0,0,0,1.34826-.67413s-.5393-1.34826,0-1.48309a6.56833,6.56833,0,0,1,2.02239.26965s0-1.75274,1.21343-1.61791,1.48309,1.88756,1.48309,1.88756,1.21343-.13483,1.75274-.26965.94378.5393.94378,1.07861-1.61791,1.34826-1.61791,1.34826a7.19753,7.19753,0,0,1,.94378,1.34826,1.35221,1.35221,0,0,1-.94378,1.21343c-1.21343-1.48309-1.88756-.40448-1.88756-.40448a41.21519,41.21519,0,0,0,.67413,4.85373c.26965.5393,1.20813-1.49677,2.15721-1.88756,1.14384-.47079,2.09819,2.08982,3.23052,1.343,1.21874-.80369.54461,2.43213,2.43217,1.758.28441-.10116-.40448-1.21343-.5393-2.56169s-.26965-2.96617-.26965-2.96617h-2.42687l-.67413-1.21343,1.61791-1.21343s-1.88756-.26965-1.48309-.809a7.25391,7.25391,0,0,1,1.75274-.67413s-1.48309-1.75274-.13483-2.02239c.43185-.08638,1.19238.94378,2.15721.94378.809,0,1.42514-1.25235,1.88756-.94378.809.5393.26965,2.02239.26965,2.02239s1.88756,1.21343,1.34826,1.75274-1.95392.02213-1.75274.5393c.94378,2.42687-1.75274,1.61791-1.75274,1.61791a9.33236,9.33236,0,0,0,.26965,2.83134,9.67549,9.67549,0,0,0,1.21343,2.42687c.40448.5393,1.75274-1.61791,2.15721-3.101a2.479,2.479,0,0,1,1.39248-1.39464c.30544-.15271.95638.41927,1.304.316.36972-.11054.43822-.89318.81-.94162a5.24129,5.24129,0,0,1,1.482-.00216c1.61791.26965,1.21343,1.75274,2.15721,1.75274s1.88756-1.07861,3.23582-1.21343,3.23582,1.88756,3.50547,1.34826a6.71074,6.71074,0,0,0,.13483-2.42687,14.631,14.631,0,0,1,.26965-2.292s-1.48309.5393-2.02239.67413,0-1.61791-.5393-1.75274-2.292-1.61791.26965-1.88756c1.21451-.12747-1.34826-2.292.5393-3.50547.16-.1032.95217.85956,1.48309.809.53292-.05057.83417-1.03331,1.07861-.94378,1.07125.39393.5393,1.07861.94378,1.48309s1.21343-.40448,1.75274.40448,1.07861,1.48309.67413,2.15721-1.4336.2728-1.48309,1.21343c-.04953.94693.40448,1.07861-.13483,1.61791s-1.88756-.13483-1.88756-.13483a3.90449,3.90449,0,0,0-.26965,2.02239,8.927,8.927,0,0,0,.40448,2.42687c.26965.67413,1.75274-2.02239,3.101-1.88756s1.88756-2.56169,2.96617-2.42687.5393,2.69652,1.34826,2.02239.94378-1.34826,2.02239-1.21343,2.02239.94378,2.02239,1.34826-.5393,2.83134,0,2.69652,1.75274-1.75274,4.04478-1.34826a4.16388,4.16388,0,0,0,3.50547-1.34826c.5393-.809-1.21343-1.75274-.5393-2.56169a13.62167,13.62167,0,0,1,1.61791-1.07861c.68781-.52667.77733-1.95075,1.34826-2.02239a4.02921,4.02921,0,0,1,2.96617.809c.60357.53091.11053,2.59536.26965,2.96617.40448.94378,1.88756-1.88756,2.69652,1.07861.32755,1.19975,2.292-2.15721,3.50547-2.15721s.67413,2.15721,1.61791,2.42687.26965-3.37065,2.69652-2.69652,2.83134-1.88756,4.31443-1.61791.5393,2.69652,1.88756,2.96617,1.21343,1.61791,2.69652,1.88756,2.15721-2.15721,3.77513-2.96617,3.50547,3.23582,3.50547,3.23582l.5393,17.7075-203.04785.35918S386.95508,125.30981,390.37,125.84911Zm87.3672-7.55025c.5393,0,.809-1.07861.809-1.07861s-1.07861-1.48309-1.21343-.5393S477.19785,118.29886,477.73716,118.29886Zm23.05523.67413c-.5393.26965-1.21343.40448-1.21343,1.07861a3.67552,3.67552,0,0,0,.5393,2.15721c.40448.40448,1.34826-1.88756,1.48309-2.292S501.33169,118.70334,500.79239,118.973Zm1.34826,2.15721c-.26965.40448-.67413,1.07861-.5393,1.48309s1.21343-.809,1.21343-.809S502.4103,120.72572,502.14065,121.1302Zm-48.13286-1.75274a5.878,5.878,0,0,0,.26965,1.61791l.94378.40448s.67413-.809.40448-1.34826S454.00779,118.56851,454.00779,119.37747Zm-10.3816,2.42687s1.34826-1.21343,1.21343-1.61791-1.88756-.5393-1.88756,0A4.75542,4.75542,0,0,0,443.6262,121.80433Zm42.06569-.809c.40448.13483,1.48309-.94378,1.48309-.94378s.40448-1.34826,0-1.48309-1.48309,1.07861-1.75274,1.48309A.5793.5793,0,0,0,485.69189,120.99538Zm75.0096-.44978a.6225.6225,0,0,0-1.07861-.5393c-.4487.44978-1.07861,1.07861-.26965,1.52839.33381.18543.988.89848,1.25766.89848S560.52243,121.17443,560.70148,120.5456Zm-11.05573,1.43886c.2706.26965.53823-1.52839.35918-2.06769s-.72051-.71943-.98908-.18013S549.375,121.71481,549.64576,121.98446Z" style="fill:#264736"/><path d="M391.80774,133.93867l96.71549.18013s17.61582.35607,35.77309-1.25873c8.08956-.71943,17.797,1.43886,29.84183,0,20.95171-2.50267,50.33537-3.23582,50.33537-3.23582l1.43778,10.78607H390.72913Z" style="fill:#ffea6e"/><path d="M596.29969,288.65491l2.15721-147.88542H535.26253l-34.69449-3.595-24.44879,1.97709-27.32436-1.25766-20.13436-7.19108-18.6955,6.47164-23.72936,1.43778L334.4625,83.24412s-35.23487-24.44879-57.52537-23.011C254.645,61.672,213.65791,74.61526,213.65791,74.61526s-61.12089,25.16823-71.907,25.16823-15.1-2.87772-22.29105-7.91051-32.35822,2.87557-32.35822,2.87557l-51.05425,17.2588-43.1443,7.19V288.65491" style="fill:#18becd"/><path d="M386.23565,138.61227,334.4625,83.24412s-35.23487-24.44879-57.52537-23.011C254.645,61.672,213.65791,74.61526,213.65791,74.61526s-61.12089,25.16823-71.907,25.16823-35.36442,13.19926-43.95325,15.00774c-20.49354,4.31443,58.2448,50.69455,58.2448,50.69455l143.45479,24.26867Z" style="fill:#00a1b3"/><path d="M601.14818,147.5097s-26.96626,1.43778-47.45929.89848c-20.49354-.5393-41.71654-4.79148-44.67212-3.68344-10.78607,4.04478-24.53832,3.77513-29.1224,3.77513s-26.69553-2.96617-25.61693-4.04478,18.87563,1.88756,28.31344.5393c4.03947-.57725,19.41493-2.15721,22.65076-3.50547s13.48259-2.69652,13.48259-2.69652l-23.72936-1.88756-21.3025,1.34826s-21.57215-1.88756-22.92041-.5393,3.77513,16.17911,3.77513,16.17911l55.81793,5.393s29.73438,4.38294,53.21094,4.22275c26.51541-.18108,36.4936-11.68455,36.4936-11.68455Z" style="fill:#00a1b3"/><path d="M598.10785,288.65491s.48028-119.41707.5393-117.91092c.26965,6.87828-13.62019-.14743-23.01163.17917-11.64033.40651-25.32937,1.07861-29.40681,1.4862-14.38107,1.43778-44.31243-2.15721-51.05373-3.595s-23.19006-6.11355-24.71845-5.214c-.66574.39188.58245,2.89877,5.30351,4.85373,6.11773,2.53431,16.11481,4.6283,15.1005,5.03386-.89848.35918-6.76451.67413-12.58411,0-5.82073-.67413-5.48256-.89956-6.83082-.71943s5.03278,2.87557,2.51639,3.23582-20.76319-2.42687-20.76319-2.42687l-25.61693-5.12339-12.94329,2.69652-.26965,6.7413s55.63781,2.60592,59.59306,2.15721,18.51645-.0906,24.53832.26965,26.51541,2.51639,25.61693,3.77513c-.33493.46975-10.924,4.07111-21.75228,5.93234-18.20042,3.12733-40.95129,4.95384-45.12138,5.12339-6.65177.26965-26.42588-4.04478-44.2229-2.96617-3.1337.18964-22.29158,2.15721-26.15623,1.61791s-12.13433-4.13538-14.83085-3.77513-6.65177,1.25766-8.809,1.07861,0-1.97817-1.43778-2.96617-9.43781-2.96617-9.43781-2.96617l-8.89851,2.15721,3.77513,15.1005,42.605,7.55025,31.81892-4.85373,16.71842,6.8319,28.76322,3.23582s13.93129,1.88648,29.84075,2.51639c15.90838.62883,33.796,0,33.07765.71943-1.43778,1.43886-31.30175,9.58-53.21094,11.50443-17.50312,1.53682-41.14932-1.15862-42.42594-1.797-2.87665-1.43778,6.11247-.36025,7.73038-3.59608.336-.672-10.76711-4.07744-18.51645-4.31443-9.72118-.297-19.95316,1.70851-21.21189,2.87665s13.03281,2.786,11.4149,4.1343c-.84263.70262-11.04313,3.36957-19.41493,4.31443-7.69567.869-19.41493,2.15721-16.71842,3.77513s11.14525,6.47164,26.96519,9.70747,25.88658,1.43778,25.07762,2.69652c-1.21766,1.89491-12.13433,6.65177-25.79705,5.21291-8.64786-.91108-17.6169-4.94326-27.05471-6.02187s-13.8913.14638-23.999-.26965c-9.166-.37814-16.31083-1.5589-15.37016-2.15721,1.97709-1.25766,6.97825-.78791,15.37016-2.96617,9.32616-2.42264,17.90023-5.20232,18.606-6.47164,1.34826-2.42687-13.48259-1.07861-18.06667-2.42687-2.84614-.83742,5.95443-6.519,3.50547-6.7413-2.96617-.26965-8.89851,0-11.86468-.26965a26.87157,26.87157,0,0,0-19.41493,5.93234s15.81886,1.61791,20.31341,1.97817,1.25873,1.976-8.44873,3.14522c-9.28823,1.11864-19.95424.62991-33.2567,2.06769s-41.34681,3.774-43.32442,5.21291,13.84177,1.43778,17.797,1.07861,42.42487-1.43778,40.98708,0-36.13335,5.84174-46.38012,6.202-48.62375,1.81175-79.81695-1.88756C125.30218,241.2601,54.923,219.688,54.923,219.688l-69.57018-13.48259v82.44955" style="fill:#00a1b3"/><path d="M432.7959,147.06208c.71943-.89848-3.41595-1.97709-4.13538-3.41595-1.0165-2.03391-.8974-4.85265-1.25766-4.49348s-1.20925,4.39869,0,6.11139C429.56008,148.31974,432.4778,147.45924,432.7959,147.06208Z" style="fill:#00a1b3"/><path d="M437.82868,155.33069s.89317-1.69264-.18013-1.61791a41.75463,41.75463,0,0,1-8.988.36025c-4.85373-.36025-11.97213-2.87976-14.92038-4.31443-3.851-1.87493-6.24514-4.02686-7.55025-4.13538-2.15721-.179,5.57209,5.03386,2.33626,6.11247-1.03753.3455-4.49456,0-7.01095,2.69652s-5.03278,9.34829-5.03278,9.34829l5.93234,5.57316,14.5612,1.07861,10.4269-3.23582,8.988-1.25873,29.30253-7.90943-.35918-2.87665Z" style="fill:#00a1b3"/><path d="M303.81171,231.283s-12.13433-1.34826-16.44876-.809a247.815,247.815,0,0,1-26.69553,2.42687c-11.595.26965-38.82987-2.42687-40.17813-1.88756s2.42687,1.88756,6.47164,2.69652,23.72936,4.85373,42.06569,3.77513A164.58264,164.58264,0,0,0,303.81171,231.283Z" style="fill:#007890"/><path d="M305.96892,231.01333s-67.95227,3.77513-87.3672,1.07861S129.75779,208.06867,110.92,199.37454c-21.0334-9.70747-81.615-37.39208-85.21-39.90847-.524-.36757-23.36911-8.44246-35.77309,2.0319-1.48568,1.25453-1.32982-16.94384,7.01095-21.08766,4.08274-2.02766,23.6641,3.78248,25.34727,4.31443,3.92526,1.23977,73.07565,36.67265,85.74929,42.605s41.52639,11.32538,55.009,8.08956c2.24036-.53715-8.08956-8.89851-25.88658-12.94329-20.8043-4.72838-28.88544-18.04983-44.76221-29.6617-12.611-9.22294-27.53923-16.0337-28.85275-16.98807-2.96617-2.15721-13.21294-.26965-16.44876,1.07861-4.2823,1.78436-3.50547,6.202-5.93234,6.7413s-11.32538-3.50547-14.29155-3.50547S13.127,141.75857,9.62153,142.02822.18372,138.7924.18372,138.7924l29.1224-9.70747,54.46967-8.62886a98.90414,98.90414,0,0,0,8.08956,15.37016c4.03107,6.0303,9.45884,10.84822,9.70747,11.595.5393,1.61791,19.41493,16.98807,25.34727,20.49354a164.63652,164.63652,0,0,0,23.72936,12.94329C167.60957,188.14928,188.94,194.88,188.94,194.88s24.808,10.78607,32.89753,13.48259,25.07762,2.69652,29.1224,3.23582,28.5831,7.55025,28.5831,7.55025l22.11145,4.31443,19.95424,5.393Z" style="fill:#00a1b3"/><path d="M529.78,189.2173c-1.69376.52034-15.27429,3.71927-29.39205,6.202-15.09943,2.65436-30.47066,3.23582-30.201,3.77513s10.51642,1.07861,15.1005.809,22.695.08426,42.87465-2.96617c14.41373-2.17931,28.87592-7.842,29.6617-8.62886,1.88756-1.88756,4.31443-6.47164,2.96617-6.7413S533.28544,188.13869,529.78,189.2173Z" style="fill:#5fc9df"/><path d="M443.22172,144.18544s-3.05569-1.25766-4.49456.18013-2.33626-1.25766-3.95417-1.43778-.00108,3.05569-.89956,2.69652-4.1343-5.214-4.1343-5.214a10.11357,10.11357,0,0,0,0-2.51639c-.18013-1.25873-2.33734-2.51639-3.95525-2.15721s-3.59608.5393-4.31443,1.07861-1.07753,1.43778-2.87557,2.15721-14.74133,2.15721-14.74133,2.15721,12.76316-6.83082,14.38107-7.90943,4.49348-2.33626,9.70747-2.15721,17.97715,6.11139,17.97715,6.11139Zm32.08857,9.61579a146.32529,146.32529,0,0,1-21.12237-2.24458c-.35918-.179,4.85265-2.51747,3.23582-3.23582a22.82476,22.82476,0,0,0-5.03386-1.07861l-7.55025,2.69652s2.33626,1.61791,1.43778,1.97709-6.29152,1.25766-7.19,1.43778-2.33734,2.33626-3.77513,2.69652-10.78607,0-12.58411-.35918-5.93234-2.15721-7.55025-2.69652-2.69652-.35918-2.33734.35918,3.41595,2.15721,6.8319,2.87665c1.79381.37818,2.15721,1.61791-1.43886,1.43778s-8.80791-3.95417-11.50443-3.595-3.05677,1.61791-3.95525,2.51639,0,3.595,0,3.595l5.93234-1.25766s8.809,2.51639,14.92146,1.97709c5.38558-.475,43.32335-4.31443,49.97512-4.31443Z" style="fill:#006980"/><path d="M530.4994,157.57635c4.80843.62883,29.88605,1.57261,37.16665-.315s13.75224-7.14577,13.75224-7.14577l-2.02239-.62883s-9.97712,3.3275-15.19,4.58624Z" style="fill:#007890"/><path d="M149.03154,155.78047c.809-.5393,7.01095.26965,7.01095-1.88756s-3.50547-5.93234-5.12339-8.08956,1.07861-1.88756,2.69652-.809,10.79243,7.20792,13.75224,7.01095c4.04478-.26965,2.59857-4.57457,7.2806-4.31443,4.85373.26965,12.21964-.60454,13.48259-1.07861,4.31443-1.61791,1.88756-6.202,4.85373-5.93234s15.07579,9.955,15.07579,9.955,11.35009,8.11165,22.94512,12.69573c7.46073,2.94936,31.01,11.32538,51.5035,14.0219,10.5175,1.38409,20.839,2.94936,19.68459,4.58408-3.23582,4.58408-65.25575,5.12339-65.25575,5.12339s-83.86173-24.53832-84.67068-24.808S149.03154,155.78047,149.03154,155.78047Z" style="fill:#00a0b0"/><path d="M117.55063,152.68544a19.433,19.433,0,0,1-3.541-1.94847,6.25541,6.25541,0,0,1-1.59362-2.30119l2.12483-1.06241,3.18724,3.00982Zm-17.35242-19.30089-8.32244-12.39519-9.65044-7.25948s-7.79069,1.06241-7.96811,2.656,2.86458,4.63353,7.52561,7.96811c3.32674,2.3811,8.8837,5.10662,9.91606,6.72827,2.47913,3.89481,12.57156,10.979,12.57156,10.979Z" style="fill:#007890"/><path d="M411.75246,138.23737c-1.7811-.038-3.25481-.0906-4.30384-.16332a122.4431,122.4431,0,0,0-17.797.5393l1.25873-2.33734s10.2351.02213,23.72828.06635Zm38.28323-1.74432c14.90981.08316,27.1959.19059,28.78115.32227,4.31443.35918,12.04481-.53823,16.35924-.89848s33.43683,2.51639,39.189,3.05569,63.35517.35918,63.35517.35918l.29518,4.67468s-28.70834,1.90656-44.05529.5393c-18.15728-1.61791-19.06-3.06409-29.6617-4.31443-13.40053-1.58208-24.62892-2.15721-24.62892-2.15721s-18.51538,2.33626-24.987,2.33626-14.023-1.97817-21.3931-2.15721c-.81426-.02-1.9139-.03159-3.2369-.03579Zm32.196,9.31031a90.85871,90.85871,0,0,0,15.10158-.179,50.03637,50.03637,0,0,0,10.42582-2.51747c1.43778-.71943.00839-1.501-1.07861-1.61791-2.40693-.25809-11.6067,1.62742-17.618,2.51639-6.55914.9712-9.87176.97756-10.24677,1.25873C478.09633,145.80335,480.43367,145.80335,482.23171,145.80335Zm95.0965,3.595c-.36761.07379-11.78144,3.54659-21.21189,5.214-13.57427,2.39949-27.50449,1.97709-26.24575,3.05569.91528.7847,22.11145,1.07861,30.38114-.35918s19.95316-6.11139,20.85272-6.83082S578.22669,149.2193,577.32822,149.39835ZM520.88253,163.7805c.40124-.50768-6.36952.08221-11.50551-.89848a298.7998,298.7998,0,0,1-33.97613-9.16816s-7.584,3.08-15.81886,5.57209c-11.36865,3.43916-24.35508,6.62331-23.72936,6.8319,1.07861.35918,8.74781,1.48309,18.51538-1.61791a93.78537,93.78537,0,0,1,20.49354-4.13538c1.07861-.179,17.73379,2.76611,20.13436,3.23582C507.39886,166.02724,519.53319,165.48793,520.88253,163.7805Zm-81.07568,6.83082a66.1475,66.1475,0,0,1-10.60595-3.41487,6.78838,6.78838,0,0,0-2.51639.179c-1.07861.35918-9.16816,2.87665-9.16816,2.87665l.179,1.43778a68.40446,68.40446,0,0,0,7.91051-1.25766c.51609-.19381,3.9699.98585,8.44873,1.61791,8.01889,1.13126,16.35924,2.51639,18.87563,2.15721s2.33626-.71943,1.07861-1.07861C453.41055,172.95817,445.56109,171.98171,439.80685,170.61132Zm-32.7174,13.84285c2.15721-.71943,4.49456-1.61791,6.47164-1.61791s16.08851-.36025,18.0656-.71943,4.31335-.90064,2.87557-1.07969-20.94116-1.61791-22.37895-1.797-9.52842,5.03494-10.9662,5.214-5.75221,2.69652-5.75221,2.69652-11.86576.71835-13.30354.71835-4.13322,1.07861-2.33626,1.61791,12.583.71943,12.583.71943,10.78607-2.87557,12.94329-3.05569,3.7762,0,5.214-.18013,5.4804-.89956,4.22275-1.25873S404.93223,185.1736,407.08945,184.45417Zm50.15525-37.03291a1.79184,1.79184,0,0,0,.35918-1.97709,1.576,1.576,0,0,0-1.61791-.89848l-.179-2.69652-8.809-7.19108s-14.74133-4.67361-19.95424-4.1343-10.24677,5.03278-10.24677,5.03278a13.41561,13.41561,0,0,0,3.05569.5393c1.25766,0,7.01095-1.97709,8.08956-1.797a10.44194,10.44194,0,0,1,2.51747.89848,40.35547,40.35547,0,0,1,6.65069,5.93234c.71835,1.07861,1.26713,1.97493,1.07753.89848-.5393-3.05569-2.33519-4.85373-2.33626-5.57209s2.15829.35918,3.41595,1.97709a27.05307,27.05307,0,0,1,2.87665,5.21291c.179.5393,1.798,1.07861,1.798,1.07861a9.148,9.148,0,0,1,.71835-2.51639,4.14356,4.14356,0,0,1,1.61791-.5393s3.05677,4.49456,1.798,5.57316c-.87434.74889-3.95525,1.25766-4.85373,1.25766s-1.25873-1.07861-3.41595-1.25766c-1.0892-.0906-4.49348,1.25766-4.1343,1.61791a7.72933,7.72933,0,0,0,3.05569.89848,12.798,12.798,0,0,0,3.95525-.71943s1.41673,1.40512,2.15721,1.43886c3.95525.179,5.93234-1.61791,8.62886-1.798s4.1343.35918,5.393,0,1.61791-.35918,1.97709-.89848S457.24469,147.42126,457.24469,147.42126Zm-20.13436,3.95525c-.71835-.5393-12.22386-1.97817-12.76316-1.798s-.0643.74264.71943,1.43886c1.61791,1.43778,5.57209,1.976,7.19,1.797S437.82868,151.91582,437.11033,151.37651Zm-44.76221,58.06467,1.07861,1.97709s5.92283-.20859,12.76316-1.07861c7.58809-.96372,14.68964-1.88226,15.72933-1.97709,1.97709-.18013,9.68221,3.26323,15.73041,4.67361,8.752,2.04139,12.67256,1.61791,13.03281,1.07861s3.50547.72051-10.69547-3.41487a122.21972,122.21972,0,0,1-17.97715-7.01095c-1.07861-.36025-4.1343.89848-6.65177,1.61791-2.08777.59724-13.84177,2.51639-17.61689,1.61791C396.29915,206.58138,392.34812,209.44119,392.34812,209.44119Z" style="fill:#aecaca"/><path d="M276.84652,236.676c-2.15721,1.07861-8.80846,1.52839-13.48259,1.88756s-14.29155-.179-16.44876-1.61791S279.00374,235.59742,276.84652,236.676Z" style="fill:#a2cccb"/><path d="M391.44856,142.56752s16.71842-4.04478,29.1224-10.78607c9.22822-5.01486,19.05468-3.23582,20.49354-2.15721s7.55133-1.07753,10.24785,4.13538c1.798,1.43778,3.23582,1.61791,3.23474,5.57209,5.03494,1.97817.36025,6.65177.36025,6.65177s-.179-3.95525-1.70851-3.6856c-.97745.17281-1.34718,1.88756-1.34718,1.88756s-.809.29286-.89848-.35918.35918-2.42795,0-2.87665c-.71835-.89848-3.68668-2.42687-3.23582-1.43778s2.15721,2.87665,1.43778,2.87665-1.07861-2.33734-4.85481-3.05677c-1.07334-.20438-1.34826,1.61791-1.34826,1.61791s-3.49287-6.50539-5.66269-7.2806c-3.77513-1.34826-1.43886,2.96617-4.85373.62991a9.9665,9.9665,0,0,0-10.60595-.71943,15.1731,15.1731,0,0,0-3.95525,2.24674c-3.77513,3.23582-27.23484,9.70747-27.23484,9.70747Zm173.11649-1.61791c12.22494,0,28.04379.5393,28.04379.5393l1.61791-2.69652s-28.94335-2.51747-33.70648-2.15721-25.184,1.79072-27.50449,2.69652C529.33126,140.77056,552.34012,140.94961,564.56505,140.94961Zm-95.63581,18.87563c6.11355-1.61791,7.7293-6.47164,6.381-6.202-.62151.12427-5.647,2.30576-9.97712,3.77513-5.06333,1.718-12.04373,3.6856-11.32538,4.04478S464.56,160.98185,468.92925,159.82524Z" style="fill:#dee3e3"/><path d="M258.96,129.98449c-5.21291-32.17917,15.64659-37.69224,16.71842-37.57221,1.61791.18013-10.4269,13.30354-6.65177,36.4936,2.873,17.64852,10.607,27.14423,14.74133,30.56018s6.99195,6.3926,5.03386,6.11247C283.76795,164.8591,263.0906,155.48236,258.96,129.98449Z" style="fill:#5fc9df"/><path d="M171.41265,140.23126c1.34826-.0906-5.48948-8.6173-9.70747-17.618-3.37907-7.209-5.37254-15.26055-5.93234-15.81886-1.25873-1.25981-5.21346-1.07861-5.393.89848-.0932,1.02383,3.1863,10.73443,8.26968,18.6955C163.37787,133.79544,170.06439,140.32186,171.41265,140.23126Z" style="fill:#5fc9df"/><path d="M164.7614,143.46708c.71576-.0716-5.84282-7.07306-11.505-16.17911-4.14693-6.66858-7.11731-15.31858-9.61794-19.77519-1.21343-2.16356-4.04478-.809-4.04478-.809l-7.8199,1.34826h-6.9209l-14.20147,5.57316s5.7343,1.02383,7.7198,4.32178A59.056,59.056,0,0,0,129.16736,130.883c10.6065,9.70747,19.05523,11.595,18.51593,10.06664s-12.04428-14.38107-13.12289-22.8298c.35973-2.33734,2.51694-3.59608,4.31443-1.43886.94907,1.13967,6.83245,10.55957,13.12289,17.43785C157.61876,140.26493,162.96392,143.64613,164.7614,143.46708Z" style="fill:#5fc9df"/><path d="M242.06143,103.73766c-5.75221.5393,4.31443-10.06664,1.798-10.06664-.71943,0-22.54863,7.88626-15.81994,37.75126,5.12339,22.74028,16.44876,29.48158,23.999,33.796,5.71585,3.26636,17.25772,7.8199,23.45971,8.35921s11.36754,1.01758,9.43781-.26965c-2.42687-1.61791-14.29155-3.77513-26.33378-16.71527C240.039,136.64469,240.11647,120.07168,243.14,112.00734c1.07861-2.87665,2.42687-3.41595,4.31443-3.6856,2.47217-.35279,0,4.58408,1.07861,11.595.91529,5.95026,4.13483,11.23477,4.85373,11.595s-2.4216-8.36976-1.79751-16.35924c.44926-5.75221,3.12052-11.22106,2.69652-12.49351C253.20721,99.42323,244.415,103.51645,242.06143,103.73766Z" style="fill:#5fc9df"/><path d="M217.52311,128.81528c.49292.20538-1.34826-6.202-2.15721-11.32538-.58408-3.69928.08952-5.93234-1.07861-7.2806-.78945-.91108-2.96565-4.85373-3.86465-3.23582s-.73207,7.77676.62883,12.404C212.39973,123.96155,214.28729,127.467,217.52311,128.81528Z" style="fill:#5fc9df"/><path d="M205.65843,125.84911c-3.46439-6.23573-4.99386-15.79144-5.303-16.71842-.5393-1.61791-1.798.5393-1.97761,2.69652a44.69655,44.69655,0,0,0,1.61791,12.404c1.47833,5.61739-2.96617,2.15721-5.57264.18013-5.74067-4.35443-10.9662-14.92146-12.22438-15.28063s-.26965,15.90946,12.67364,26.15623c6.82444,5.40255,10.88562,9.05439,12.13433,8.89851,2.15721-.26965,2.15721-1.88756,2.15721-6.47164C209.16391,134.7487,209.70321,133.12971,205.65843,125.84911Z" style="fill:#5fc9df"/><path d="M186.33355,140.77056a124.5005,124.5005,0,0,1-8.62886-11.50551c-5.37091-8.414-10.24677-19.41493-10.78607-17.97715-1.04118,2.77657,3.44335,25.224,14.7408,32.35822C185.07537,145.80335,187.41216,142.56752,186.33355,140.77056Z" style="fill:#5fc9df"/><path d="M398.90929,123.51285c-.20334-3.05569-6.65177-6.8319-6.65177-6.65177,0,.36025,2.15721-1.97709,1.97709-5.21291-.13064-2.34045-2.96617-3.95525-2.96617-3.95525a6.437,6.437,0,0,0-1.52731-4.67361c-1.798-1.79912-5.214-1.43886-5.57316-2.69652-.35918-1.25981.89848-3.23582-1.798-8.26968a12.06392,12.06392,0,0,0-3.595-4.31443c-1.07861-5.393-2.33626-5.21291-3.595-6.29152a6.50622,6.50622,0,0,0-3.59608-1.07861s.89956-3.95525-8.988-8.26968c-4.9559-2.16248-13.30247-1.07861-14.5612-2.15721S323.58582,54.482,303.2724,51.066c-20.55989-3.457-32.35822.53823-42.42542,2.69544-3.24111.69518-21.03337,1.98768-33.07765,4.86432-12.04426,2.87557-23.189,8.61827-24.26811,9.69688-5.39359.89956-13.12289,4.49456-15.63981,7.3712-13.84177,2.69652-20.314,8.62886-21.39257,9.88652-10.24677,2.33734-18.5159,6.65177-21.392,7.91051s-1.10342-3.19784-3.9547-4.49348c-3.95525-1.79912-5.93234-2.15721-8.62886-4.67468-2.48793-2.32255-6.11928-2.825-10.06719-3.59608-3.94792-.76892-11.5439-.889-15.81938.18121C87.91062,85.58146,86.47284,90.076,73.88873,95.46905c-11.16,4.78213-23.368,10.04239-34.87514,14.38107a380.45289,380.45289,0,0,1-44.2229,13.30247l-.08952,6.2926S112.98825,88.81728,113.52755,88.81728,144.26786,102.659,144.26786,102.659L242.60074,73.267l70.64879-1.88756,63.63784,44.76221,10.24677,11.86468-.5393,15.1005,7.2806-1.19551s1.70744-2.75866.35918-4.91588C398.27938,133.75962,399.358,130.25414,398.90929,123.51285Z" style="fill:#007890"/><path d="M-5.74862,125.04015,10.43049,122.074l43.6836-13.48259L98.337,91.873l32.62787-.26965,11.595,7.8199s-36.9423,16.71842-36.9423,16.44876-55.009,9.97712-55.009,9.97712L-4.67,136.36553Z" style="fill:#0a98a4"/><path d="M83.23649,111.55756c1.88756,0-1.34826-4.04478-2.69652-5.393s2.69652-2.69652,4.58408-1.88756,10.51642,9.70747,12.13433,10.51642,4.31443-.5393,4.31443-.5393-5.12339-7.55025-6.47164-9.16816,2.69652-1.07861,4.58408.26965,7.8199,6.7413,7.8199,6.7413l32.89753-11.86468s.809-3.23582-3.23582-6.47164S109.932,90.79437,109.932,90.79437L78.65241,97.266l-17.797,9.43781s4.58408,1.61791,6.47164,1.61791,9.16816.26965,10.51642,1.34826A9.31835,9.31835,0,0,0,83.23649,111.55756Z" style="fill:#007890"/><path d="M143.90816,98.34462l-5.66269-5.93234-9.16816-4.58408-25.07762-1.07861L62.4733,104.277l-16.17911,8.62886s2.42687.5393,7.55025-1.34826,13.48259-6.202,22.65076-8.89851,21.03284-1.07861,25.61693.26965,5.93234-.809,5.93234-.809a7.54389,7.54389,0,0,1,2.96617.5393,8.03438,8.03438,0,0,0,4.04478,1.88756c2.15721.26965,1.34826-2.15721,2.42687-2.15721s3.23582,1.07861,4.85373,1.07861.26965-1.88756,1.07861-2.42687a16.85724,16.85724,0,0,1,3.77513-1.07861s1.34826,1.61791,2.69652,1.34826,1.07861-1.34826,1.61791-1.61791,2.15721-1.07861,3.23582-.809,1.88756,1.88756,1.88756,1.88756Z" style="fill:#a2cccb"/><path d="M10.43049,122.074s14.79719-4.11217,33.16718-11.05573A448.48137,448.48137,0,0,0,85.66336,92.14263a72.46982,72.46982,0,0,1,22.92041-9.43781c6.39786-1.45362,19.14528,1.61791,21.57215,2.96617,1.41458.78578,4.58408,4.04478,8.35921,5.12339,2.3273.66466,1.61791,3.50547,1.88756,4.58408s-2.96617.809-3.77513,0-4.31443-3.77513-5.66269-3.77513,1.07861,3.23582,2.15721,4.31443-1.49151,2.4985-3.50547,1.34826c-3.77513-2.15721-5.12339.5393-6.7413.26965s-1.07861-4.31443-10.78607-4.31443c-2.42687,0-3.50547,0-3.23582.809s11.595,3.23582,8.89851,4.85373c-1.245.74793-2.42687,1.34826-5.12339.5393s-12.94329-4.31443-18.606-4.31443-24.808,8.35921-24.808,8.35921-11.634,5.39618-22.92041,9.43781c-12.29969,4.404-24.434,7.51554-26.96519,8.35921A19.05313,19.05313,0,0,1,10.43049,122.074Z" style="fill:#dee3e3"/><path d="M142.11065,185.35265c1.79751-.71943-13.22135-7.308-27.32489-14.74133-26.606-14.0219-44.82435-27.50233-47.63833-28.04379-4.67361-.89848-12.94329.71943-12.404,2.15721s13.15081,14.89095,35.23434,24.26867C116.22354,180.13866,140.31316,186.07208,142.11065,185.35265Zm93.47914,28.76215c3.65981.21067,5.21343-.71835,2.15721-1.43778-1.47048-.34654-19.58558-1.97179-30.74031-5.393-12.02692-3.68979-25.04075-7.73673-26.06618-7.55025a75.17294,75.17294,0,0,1-15.1005.89848c-15.46021-.71835-30.56071-3.32535-28.4035-1.70744S196.49027,211.86805,235.58979,214.11479Zm-39.90847,4.31551c.53823,1.07753,23.37019,7.01095,43.504,8.988s44.34457,2.943,48.71694,3.05569c6.92035.179,16.71841-.809,15.63981-2.15721-1.17235-1.46624-11.68455-1.797-16.53829-2.15721-2.23618-.16641-27.66888-1.09121-48.17816-2.96617C214.80447,220.99621,194.96241,216.99144,195.68131,218.4303Zm39.00944,23.36911c.899-.71943-33.32573-5.40359-65.61492-14.92038-42.695-12.58411-70.37966-24.62892-75.05327-25.34727s3.96258,14.56434,17.797,20.85272c11.86468,5.393,25.34727,8.62886,65.79505,15.1005C216.28173,243.67221,233.79175,242.51884,234.69076,241.79941Z" style="fill:#5fc9df"/><path d="M289.161,85.40133s-11.14525.60253-16.89854,3.95417c-5.75385,3.35276-9.88923,7.564-9.34777,5.75329,3.14577-10.51642,20.67314-15.1005,20.67314-15.1005l20.67367-3.23582,53.93037,24.808,15.45968,43.1443-6.7413,4.85373-4.04478,9.16816s-39.5493,10.4269-42.42487,10.06664-22.69821-10.85552-31.999-27.32436c-9.72852-17.225-6.09566-39.73254-6.83082-39.54822-1.43778.35918-3.51811,2.64282-5.03386,10.06664-1.38829,6.79816-.47719,17.79176-1.43834,17.25772-3.23582-1.798-4.57718-12.53989-1.43778-23.73044,1.85067-6.59588,5.36726-12.81686,15.10106-17.61582C290.62615,87.01924,289.161,85.40133,289.161,85.40133Zm16.53829,58.2448c1.43886.36025,1.07861-2.33626.71943-3.595-.17065-.59721-3.09788-3.56446-4.85373-7.19108-1.94442-4.01531-2.70915-8.85956-3.41595-8.988-1.97709-.35918.56561,8.39191-2.15721,5.75221-5.93234-5.75221-6.29152-16.00006-6.83082-18.33633s-1.798-.809-2.33734,1.88756a37.34054,37.34054,0,0,0,3.41595,21.8418c5.06653,10.03506,13.30247,15.27955,14.38107,15.45968s-8.44765-14.56012-6.11139-14.02082S304.26041,143.28588,305.69927,143.64613Zm24.44879,14.38107c-.35918-.89848-3.49395-1.97709-7.37012-6.11139-5.17183-5.51728-11.12111-13.50889-11.32646-12.58411-.35918,1.61791,2.51747,15.1005,15.46076,19.77411C328.51644,159.68515,330.50724,158.92568,330.14807,158.0272Zm3.77513-3.774c-4.69681-3.01987-9.16816-8.62886-10.4269-9.52842-.62248-.44448,1.97817,6.65177,7.01095,10.4269a16.83,16.83,0,0,0,5.75221,2.51639C337.87845,158.02828,336.43958,155.87107,333.92319,154.25316Z" style="fill:#006980"/><path d="M365.02268,184.45309c1.43886-.179,8.08956-.5393,9.88759-1.07861s3.77513-1.61683,6.65177-1.25766,9.16816,3.595,8.44873,4.1343-4.67468.18013-6.65177,0-5.57209-1.07753-7.90943-.89848-9.16816.71835-9.70747.71835S363.58382,184.63214,365.02268,184.45309Zm33.97613-2.33626,3.41595,1.97709,10.9662-2.69652,4.1343-4.67361-14.5612-3.05677ZM364.753,144.99439c.18013-.5393-2.96617-1.07861-3.14522-5.84282-.1096-2.92506-5.39412-3.595-6.2926-5.93234a8.86515,8.86515,0,0,1-.71835-6.47164,9.54151,9.54151,0,0,0-3.77513-10.06664c-1.66744-1.05335-5.214-1.798-6.65177-.71943s.337,3.891-2.33734,4.85373c-4.49348,1.61791-7.90943-1.97709-8.988-.89848s-.35918,9.16816-.35918,9.16816-.80272.84586-1.61791-.5393c-1.798-3.05569-2.33734-9.16816-1.61791-11.86468.41924-1.57261-.71943-5.03386-1.25873-4.31443s-7.01095,12.58411.18013,24.9881c7.8283,13.50364,17.6169,17.97607,17.6169,17.97607l5.48256-.89848s-6.50434-3.82043-9.61686-6.83082c-5.48364-5.30351-7.10155-9.07864-7.10155-10.9662s3.25587,2.66278,4.31443,3.77513a68.09446,68.09446,0,0,0,13.5732,10.60595c1.25766.71943-1.07861,2.69652,1.07861,3.05677C354.7074,154.27216,364.753,144.99439,364.753,144.99439ZM314.32813,104.456c-.89848-.3581-1.97709.809-2.69652,2.78712a35.535,35.535,0,0,0,0,18.606c1.77591,6.60012,7.01095,13.75224,8.35921,14.5612s-2.08141-9.31138-1.88756-17.52737c.14214-6.03662,3.25479-11.35481,3.05677-11.77516-.60986-1.29453-1.70851-4.404-2.24782-4.94326S315.22661,104.81626,314.32813,104.456ZM306.958,96.00836c-.5393-.5393-1.40932.1727-3.23582,0-3.29592-.31387-4.49456-2.69652-8.08956-.72051-.40448.22327-3.279,5.03278-3.41595,10.06772-.16537,6.05241,1.97817,11.86468,2.51747,12.58411s1.43778-.89956,1.61791-1.798a64.3092,64.3092,0,0,1,1.97709-11.14633,16.52962,16.52962,0,0,1,4.1343-7.01095c1.43886-1.07861,2.6976-.179,2.51747.72051-.18013.89848-3.59081,7.53549-3.59608,14.74025-.00422,6.21884,3.35909,12.95593,3.77513,13.12342.89848.36025.89848-1.97817.5393-3.05677a29.38482,29.38482,0,0,1-1.07861-12.04373c.71835-6.11139,3.95525-9.88759,4.49456-10.9662S307.49731,96.54766,306.958,96.00836Zm12.13433,64.89549c1.25873.35918,3.595.00108,2.15721-.89848a33.58126,33.58126,0,0,1-4.31443-2.87665c-2.87979-2.41-5.70488-5.35613-5.93234-4.67361-.18327.55194,1.21128,3.101,3.23582,5.393A9.08878,9.08878,0,0,0,319.09234,160.90385ZM310.82266,181.667a28.39731,28.39731,0,0,1,8.22438,2.292c1.97394.92061,5.25821.809,6.33682.13483A13.24082,13.24082,0,0,1,331.451,182.476a10.61571,10.61571,0,0,1,4.58408.67413l2.42687-.67413,1.21343-4.1796-29.25723.40448ZM251.7689,69.22222,198.55741,79.648,153.61562,97.266l-.899,4.31443a29.01482,29.01482,0,0,1,7.91.179c4.79839.8258,10.20363,2.93254,13.303,3.417,5.75277.89848,7.7293-1.25981,10.06664-.72051s7.19108,6.11247,8.62886,5.75329,2.51694-4.49348,4.13486-5.93234,5.57316-2.87557,6.83135-2.33626,1.61791,4.31443,2.87612,3.77513,3.9547-5.75329,5.393-6.2926,2.33679,3.59608,3.4154,4.49348c1.07861.89956,3.23582-.8974,4.13486,0,.899.89956,1.79748,5.214,2.51692,5.75329s2.14988-.18216,2.69652-1.43778c7.90943-18.1562,28.403-22.65183,29.6617-22.83088s2.15721.5393,1.43778,1.07861a8.6278,8.6278,0,0,0-1.97709,4.49348c0,1.79912,1.57424,1.40415,2.87612-.179,6.65122-8.08956,14.20147-10.42582,14.20147-10.42582Z" style="fill:#00416b;stroke:#00416b;stroke-width:0.24780000000000002px"/><path d="M337.78784,159.55559c.71943-1.07861,4.04478-.988,4.04478-.988a7.89577,7.89577,0,0,1,2.87665-3.23582c2.15721-1.43778,8.2686-1.43886,9.52734-1.97817s-.62775-3.95417.89956-4.67361,3.59392.71835,5.03278-.18013,3.41487-4.49564,4.67361-3.95525-2.15614,6.11247-1.25766,6.8319a.94623.94623,0,0,0,1.61791-.35918c.24752-.53508.19381-1.85281.5393-2.33734.89848-1.25873,5.78067-3.47914,5.57209-5.57316-.179-1.797-3.41379-1.25873-4.85265-2.15721a5.643,5.643,0,0,1-3.05677-3.95417c-.53823-2.69544-5.93126-3.41595-6.65069-5.93234-1.00064-3.4992,1.07753-7.91051.179-10.607s-4.49348-5.393-7.19-6.83082-6.47164-.18013-7.19108,0-1.43778,2.33626-2.15721,3.05569-2.87772.71835-4.13538.35918-5.571-5.03278-7.00987-7.90943c-.58461-1.17029-5.39412-1.61791-6.2926-2.51639s-1.798-3.7762-1.798-3.7762-4.31443-.71835-6.11139-1.976c-1.797-1.25873-5.01489-4.13957-5.214-5.03386-.35918-1.61791,4.67468,1.97709,5.39412,1.61791s1.07861-3.95525-1.619-5.03386c-1.49259-.59613-7.01095,1.43886-8.44873.89956-5.75221-2.15721-11.68455-1.61791-16.53829-2.87665-4.28079-1.10911-4.67361-4.1343-8.26968-5.57316-2.32474-.929-5.21291.5393-8.26916-1.07861-2.02239-1.07018-2.63914-4.3376-4.85373-4.85373-5.393-1.25873-6.11191,2.33734-9.70747,1.97817-1.55524-.15584-2.91774-1.80751-5.03331-2.69652a24.20665,24.20665,0,0,0-6.83138-1.61791c-1.07861,0,1.08594,4.19958-1.25873,6.65069-3.9547,4.13538-14.5612,4.67468-15.1005,5.214s.899,2.33626-5.03331,3.41487c-5.27667.95955-14.02137-3.23582-15.28011-3.595a30.06015,30.06015,0,0,0-6.83135-.35918c-.899.179,5.03331,5.57209,2.33679,8.08956-2.69652,2.51531-7.19108,1.61791-8.62886,1.61791s-2.51692,1.07861-4.31443,1.07861-4.31443-1.79912-7.01095-1.43886-9.34721,2.15721-13.30247,2.33734-12.404-2.15829-14.3816-1.25873a16.4809,16.4809,0,0,0-4.13485,3.23582s-13.30247,1.97817-15.28008,2.15721-5.03333,2.15721-3.23582,2.15721,6.11247-.71835,7.91-.179,1.798,2.15614-.5393,2.87557-8.09008.53823-10.4269,3.05569a10.965,10.965,0,0,0-2.33679,9.34829c.50294,1.76225-2.51694-1.43778-3.23582-2.51639s-2.15721-12.04481-2.15721-12.04481,29.302-12.583,30.02141-12.76316,30.38061-10.60595,30.38061-10.60595l24.808-13.30354,18.33633-5.393,79.63682-8.08956,12.58411,2.51747,16.71841,8.44873,5.393,3.595s11.32538,15.81994,12.404,17.07867c1.07861,1.25766,23.90949,16.17911,23.90949,16.17911l8.62886,1.61791,1.43778,4.49348,1.798,2.15721-1.798,4.13538,2.51747,3.595s-1.97817,3.41595-2.15721,3.95525,1.797,7.55025,1.797,7.55025L385.157,149.03917s-8.62575,16.54985-8.08956,16.35924c2.786-.98908,14.92038,13.48259,14.92038,13.48259l-2.15721,3.05569s-6.82974-2.69652-8.2686-3.05569a9.45148,9.45148,0,0,0-6.65177,1.61791c-1.61791,1.43778-10.60595,2.33734-13.48259,1.97709s-19.00314-6.44531-22.29158-4.1343c-6.65069,4.67361-18.96515,1.798-25.07762.89848s-13.30247-3.595-17.6169-4.85373-13.12342-5.03386-14.0219-6.65177c-.80584-1.44931,4.85373.89848,7.90943,1.61791s19.68459,3.7762,19.68459,3.7762,7.37012.71835,8.62886-.71943-.35918-6.11247,3.77513-9.16816c1.43886-1.07861,5.03278-1.43886,6.47164-1.25873s3.05569,1.798,4.85373,1.25873S337.06841,160.6342,337.78784,159.55559ZM372.93319,146.882c-1.07753,0-6.11355,3.41595-5.214,3.77513s3.95525-1.61791,3.95525-.5393-1.07861,3.05569-.35918,3.05569,3.41487-1.43886,3.595-2.15721-1.43886-.53823-1.61791-1.43778,1.07753-1.07969,1.25766-1.798S374.01072,146.882,372.93319,146.882Z" style="fill:#aecaca"/><path d="M390.55008,178.52075,386.05552,146.882l22.83088-7.01095s-.18013,1.61791,9.52734-.71943c.82048-.198-6.70863,4.0311-6.47164,5.214.5393,2.69652,8.27808,6.44319,7.73038,7.19-.40137.54881-3.6403-.553-7.01095-2.33626-3.179-1.68218-5.93234-4.13538-6.29152-3.77513-1.17029,1.17343.53823,2.33626,1.797,3.23582s1.25873,3.23582-1.07861,3.23582a9.30231,9.30231,0,0,0-5.03386,2.15721c-1.61791,1.25873-3.95417,5.393-2.87557,5.393s7.703-2.38468,10.06664-1.25873a3.84818,3.84818,0,0,1,2.15721,5.21291s6.84666,3.84148,7.90943,8.08956c1.43886,5.75329-1.43778,7.19108-4.1343,6.65177-3.56449-.71305-5.93234-1.61791-9.16816-1.798s-4.31443,1.43886-5.393,1.43886Z" style="fill:#5fc9df"/><path d="M409.51524,166.29689c-.26965-.67413.5393-1.48309,2.15721-.809a11.2725,11.2725,0,0,1,3.50547,2.96617c.809.809-.67413,2.02239-1.61791.809C412.56358,167.98115,409.78489,166.971,409.51524,166.29689Zm6.7413,9.16816c.13483.809,1.34826.26965,1.75274-.5393s0-2.56169-.13483-3.23582-1.75274-.67413-1.61791.26965S416.12171,174.6561,416.25653,175.46505Zm-18.33633-21.8418c.40448-.13483,1.41565-.74153,2.42687-1.21343a19.29707,19.29707,0,0,0,2.42687-1.07861c.5393-.5393-.25813-1.16813-1.21343-.94378a6.35133,6.35133,0,0,0-3.77513,2.292C397.3809,153.21877,397.11125,153.8929,397.92021,153.62325Zm-67.413,15.37016c-1.62106.14746-2.24674-3.05677-3.41487-2.69652s-3.86465.5393-3.77513,3.77513c.0453,1.62007-.72051,3.77513-1.70851,4.31443s-4.85373,1.52839-5.75221,1.25873-1.798.988-1.07861,1.34826a39.52446,39.52446,0,0,0,8.62886,1.34826c1.97817-.08952,4.85373.179,6.47164,0s4.404-1.619,4.94326-2.607.179-2.96617.5393-4.04478,5.21291-5.214,6.47164-5.393-.5393-2.51747-2.15721-1.61791S334.4625,168.63423,330.50724,168.99341ZM288.80181,87.9188c1.43778.35918,3.05569,0,2.51639-1.07861s-9.88652-6.2926-9.70747-5.57316S287.364,87.55855,288.80181,87.9188Zm59.32233,92.22093c2.15721.179-.71835-5.03386,3.6856-5.48364,1.897-.19381,6.202-.26965,7.2806-.5393s1.619-.809,1.25873-1.70744-3.05569-1.798-3.23582-3.23582,2.33626-1.97817,5.03278-.71943,1.43886,5.57209,2.33734,6.202,3.95525-1.34826,5.66269-1.34826a5.31488,5.31488,0,0,1,3.23582,1.61791,12.077,12.077,0,0,1,2.69652,0c1.16813.18013,2.02873,2.627,3.32535,1.97817,2.33734-1.16921-1.88648-5.30459-1.25766-7.821s2.786-2.24674,2.51639.98908c-.4034,4.83692,8.08956,6.47164,7.90943,10.4269-.04219.91532-3.595-.36025-3.595-.36025s5.21291,3.95525,6.7413,4.22491,1.70744-2.24674,3.50547-2.24674,4.1606,1.87809,5.393,1.43778c2.51639-.89848-.71943-1.97817-.5393-2.69652s2.33734-.18013,2.96617-.809,1.16813-3.05677-1.88756-4.58408-4.67468-2.87557-5.03386-3.595,1.0691-1.37251,3.41595-1.07861c5.75221.71943,6.47164,1.619,8.44873,3.95525,1.15021,1.35874,3.95417,1.61683,4.85373.71835s.5393-3.23582-1.07861-4.67361-8.988-4.67468-9.797-5.30351-.54146-1.0828.44978-1.52731c2.607-1.16813,3.595.179,4.67361-.62991s.35918-2.24782-1.34826-2.42687-6.92142,1.43886-8.89851,1.43886-4.31443-.36025-4.04478-1.43886,2.42687-2.24782,3.32535-3.23582.18013-1.61791-1.16813-1.61791-2.78712,1.07861-3.23582.5393,2.60592-3.95525,5.12339-5.393,5.75221-2.15721,6.7413-2.96617,1.52731-1.70744-.5393-1.34826-5.66269,3.77513-8.17908,4.49456c-1.39572.39921-3.95525,1.07861-4.49456.62883s.35918-4.22491,1.34826-5.12339,3.50655,0,3.86573-2.15721c.29487-1.77278-3.48975-1.53473-2.69652-3.23582,1.25766-2.69652-1.25766-.89956-1.61791-1.798a5.46493,5.46493,0,0,1,.179-3.95417c.62991-.89848,2.51639-1.97709,3.77513-3.23582s1.07861-4.85373,1.07861-4.85373.59516-3.25058.36025-3.95525c-.5393-1.61791-7.73038-6.47164-7.73038-7.37012s3.595-1.61791,3.05569-3.95525-3.23582-2.51639-3.50547-3.23582.4487-3.95417-1.61791-5.12339-4.22491.71835-4.94326-.26965.257-3.92471-.98908-7.2806c-1.16813-3.14522-1.16813-5.48256-4.31443-7.01095.08952-1.88756-.98908-4.04478-2.96617-5.84174-1.49464-1.35881-4.58408-1.16921-4.58408-1.16921a14.33959,14.33959,0,0,0-.5393-3.77513c-.4487-.809-5.84282-4.67468-8.35921-5.12339s-11.86468-.44978-13.84177-1.61791a146.2786,146.2786,0,0,0-34.15626-16.17911c-20.13329-6.65069-45.12194-2.33626-49.34629,0-5.48256.5393-30.91991,3.68452-41.07661,7.01095a95.81745,95.81745,0,0,0-17.97715,8.08956,28.628,28.628,0,0,0-7.37012,1.97817,27.13759,27.13759,0,0,0-6.92142,5.03278c-.28865.24756-6.50272,1.37772-11.23533,3.41487a38.331,38.331,0,0,0-9.887,6.47272,106.19811,106.19811,0,0,0-15.63981,5.21291C143.0829,96.91,131.698,102.45467,118.38128,107.873c-18.01188,7.329-36.6363,9.90972-40.44778,10.42582-8.62886,1.16921-82.33387,16.44876-82.33387,16.44876l.26965,5.66269,28.04379-6.7413s11.41543-.62883,18.33633-3.77513c2.69122-1.224,13.93182.08952,16.44876-.809s2.78657-2.69652,5.21344-3.595,11.77463-1.52839,13.03281-1.61791,3.59555-.35918,7.37067,2.786c2.05085,1.70851,6.202-2.56169,6.202-2.56169s-1.61791-2.56169-.94378-3.91,4.78631-.809,6.47164,1.48309,6.87612.26965,5.25821-2.15721,2.96617-3.50547,4.85373-.40448,4.25542-.455,4.1796-1.21343c-.13483-1.34826-.58408-1.21343-.04477-2.83134.346-1.03749,8.26916-2.15721,10.696.26965,3.3838,3.38329,9.79752,13.75224,11.95473,13.75224s-3.81988-5.04021-5.75274-10.78607c-1.26036-3.74771-1.43359-8.83529-1.07861-9.43781a14.97945,14.97945,0,0,1,7.01095-5.48256c3.41595-1.25873,13.48259-3.05569,16.35924-4.1343s5.393-3.95525,8.08956-4.49456,10.96565,2.15614,14.11142,1.70744c1.4409-.20643,7.68508-2.41628,12.67364-2.60592,5.906-.22435,10.70182,1.60207,12.94329,1.797,4.13483.36025,5.12339-2.33626,4.31443-4.1343s-5.39359-4.67468-6.83137-6.11247-1.07861-1.88756.35973-2.15721c.582-.10957,3.60027.79323,8.44926,1.61791,7.13046,1.21235,16.978,2.60592,18.6955,3.23582,5.393,1.97817,3.05625-2.24782,5.57316-2.69652s5.58945,1.09232,6.29152.18013c3.59555-4.67361,5.23977-1.94126,6.29207-3.1463,4.31443-4.94326,0-8.35921,0-8.35921s-2.51695-1.61791,2.15721-.809,9.70747,1.52731,11.05573,1.61791,2.60644,1.70744,4.31443,1.88756,7.99948-4.67361,13.48259-2.42687c1.84118.75418,2.42687,2.786.809,2.42687s-7.91-2.51747-5.12339-.26965,9.16816,4.85373,9.16816,4.85373,2.80188.60145,2.42687-1.34826c-.89956-4.67361,3.23582-4.49456,5.393-3.77513s11.14525,6.65069,11.32538,7.55025-5.393-1.16921-5.03386-.179c.35918.988,6.4822,4.59456,7.46073,4.76313,2.607.44978-.62883-3.41595.809-2.96617s5.393,4.1343,7.8199,4.31443,3.6856-3.05677,7.63978-.5393,3.59608,8.08956,4.22491,9.97712,2.06769.0906,3.50547.44978,2.33734,4.67361,4.04478,5.21291,4.22383.71835,5.48256,2.15721,4.13538,6.11139,6.11247,6.7413,1.97709-1.88756,2.96617-2.42687,8.17908-2.51747,11.86468,0,6.02187,4.31443,7.01095,7.2806-.62883,9.797.5393,12.13433,5.30351.71943,6.7413,6.2926c.414,1.60531,3.95525,1.88648,5.393,1.97709s1.97709-1.43886,3.77513.35918-1.43778,7.19108,2.51639,10.9662c.77949.74469-.71309,1.57575-.71835,2.33734a4.50526,4.50526,0,0,0,.89848,2.51639s-7.19108,4.85373-10.06664,3.595c-1.04174-.45613-.0906-1.25766.71835-2.87557s.35918-3.32535-2.69652-1.25873c-1.63271,1.10494-2.15721.988-3.77513,1.43778s-4.49348-1.61791-4.49348-1.61791-1.16921,2.786-2.87665,3.41595-7.90943-.00108-8.89851.35918-2.607,1.61791-1.34826,2.15721a12.36274,12.36274,0,0,1,3.77513,2.33734c.5393.71943,5.57316-.18013,5.57316-.18013s2.51747,1.43778,1.61791,2.69652-5.393-1.797-5.84282.26965c-.17281.79527.77626,2.80192.08952,4.76421-1.25766,3.595-4.24391,1.34191-4.67361,1.43778C344.79879,171.87005,345.96692,179.96069,348.12414,180.13974ZM370.955,134.83822c-1.07861-.54038-1.07861-3.595-2.33626-4.67468a50.14581,50.14581,0,0,0-5.03386-3.23582,2.12746,2.12746,0,0,1,2.33734-.89848c1.61791.35918,3.05569,1.97709,3.77513,1.97709a11.89575,11.89575,0,0,1,3.41487.18013c1.43778.35918,4.67468,4.67468,5.57316,6.11247s-.54038,2.15721-1.798,1.97709A31.72973,31.72973,0,0,1,370.955,134.83822Zm6.8319-9.34829c-.18013-.5393,2.69652-.5393,3.595-1.798a5.21849,5.21849,0,0,0,.35918-4.31443c-.35918-1.25873-7.3712-8.98911-8.08956-9.88759s-.35918-2.69652,1.25873-1.61791,6.29152,8.27076,7.01095,8.62994,1.43778-.71835.89848-2.15721-5.21291-8.27076-3.595-7.91051,1.798,1.43778,2.87665,1.61791,2.87557-1.43778,3.595-.5393c.35918.4487.35918,1.86439.89848,2.87665.5393,1.01121,1.61791,1.61791,1.798,2.15721.35918,1.07861-1.61791,2.87665-1.61791,3.77513s.89956,1.97817,1.25873,2.69652,0,2.87665-.71943,2.69652-1.25873-1.43778-1.25873-1.43778-1.21235.18121-1.25766,1.07861c-.18013,3.595,2.51747,8.62778,2.69652,9.88652s-1.25873,1.97817-2.33734,1.61791S377.967,126.02924,377.78692,125.48993Zm-15.63981-11.68455c-.18013-.71943.35918-2.87557-1.25873-4.85373s-6.83082-4.13538-7.01095-5.214,7.37012,1.07861,9.34829,3.95525c1.83588,2.67022,1.797,9.88652,1.25766,9.52734A11.50668,11.50668,0,0,1,362.14711,113.80538Zm-18.51645-10.24677c-.71943.3581-1.07861,1.43778-1.61791,2.15721-.5393.71835-3.05677.71835-3.95525.5393-.89848-.18121-3.595-3.59608-3.595-4.85373,0-1.25873,3.595,1.797,4.85373,1.61791,1.25873-.18121.18013-2.87772.18013-3.59608s1.976-1.43671,2.87557-.89848a20.88465,20.88465,0,0,1,2.87665,2.87665s3.77513.5393,3.23582,1.07861S344.35009,103.19835,343.63066,103.55861ZM331.58585,70.265c-.97227-.1949-1.74963,1.3598-3.49913,1.16608-1.74961-.1949-11.66244-5.63637-12.05116-6.60863-.18748-.47081,1.03331-.48138,3.49909.38862,2.62813.92911,6.60755,2.71766,6.41372,2.13834-.97116-2.91569-14.3842-7.386-14.77293-8.35824-.38754-.97215,7.58088,1.55481,17.10607,6.02618,8.51086,3.99527,11.27274,7.5797,10.30156,7.5797C337.61083,72.59709,332.557,70.45994,331.58585,70.265ZM235.41019,73.3576c3.59555,1.25766-.5393,6.11139-3.4154,7.01095-2.932.9164-6.8319-1.619-8.09011-1.25981-1.25818.36025.02265,2.4943-3.23527,2.87772-3.05569.35918-5.00011-2.69445-5.39359-3.77513-.71888-1.97817,7.55081.8974,10.0672-1.43886.93169-.86578.71888-2.33626-.5393-3.23582a17.05056,17.05056,0,0,0-6.65125-2.15721c-2.15721-.18013-6.8319,1.25873-7.73038.71943s.899-2.33734,2.69707-2.33734,10.42634,1.798,12.04426,1.97817C226.78133,71.91874,231.81466,72.09887,235.41019,73.3576Zm.1796-4.31443a22.2594,22.2594,0,0,1-7.19055.3581c-2.15721-.3581-5.214-1.07861-4.49456-1.797s4.13486-.89956,6.65177-.5393S236.6684,68.68292,235.58979,69.04317ZM177.88429,88.4581c-.71891-.72051,6.47164-.5393,9.16816-.89956,1.61369-.21484-.35918-2.51639,1.25873-2.33626,1.36087.15059,5.03278,3.23582,5.39248,3.95417s.1796,1.798-1.07861,1.43886a12.326,12.326,0,0,0-5.94658-.7563A13.594,13.594,0,0,1,177.88429,88.4581Zm232.70955,90.78207c-.5393.26965-.94378,1.21343-.13483,1.34826a30.80075,30.80075,0,0,0,4.98856,0c.67413-.13483,1.75274-1.34826.94378-1.61791A20.45146,20.45146,0,0,0,410.59384,179.24018Z" style="fill:#dee3e3"/><path d="M391.853,174.11679c-.26965-.809,3.91-1.07861,4.71891,1.48309.34654,1.09869-.67413,1.21343-1.21343.809S392.0942,174.84045,391.853,174.11679Zm1.21343-48.94181c.67413.26965,2.292-.26965,1.34826-1.48309s-4.44926-.94378-4.31443-.67413A14.08376,14.08376,0,0,0,393.06647,125.175Zm-.94378,7.8199c.40448-.13483,2.83134-1.75274,2.56169-4.04478-.079-.6699-1.21343.26965-1.48309,1.07861S391.71821,133.12971,392.12269,132.99488ZM375.13462,88.63715c.67413.13483.5393-1.34826-1.48309-3.101-.652-.5656-2.42687-1.88756-2.56169-1.48309a8.70174,8.70174,0,0,0,1.34826,3.6403C373.11224,88.63715,374.46049,88.50233,375.13462,88.63715ZM364.6182,78.79486c.672.05168.26965-2.02239-2.42687-3.23582s-7.55025-1.21343-7.55025-.94378a5.96627,5.96627,0,0,0,2.96617,1.88756C362.59581,77.58143,362.86547,78.66,364.6182,78.79486Z" style="fill:#46b0c2"/><path d="M104.17981,119.01829a5.01065,5.01065,0,0,1,3.05569,1.97709c5.79912,6.93514,18.72343,26.606,20.31394,27.50449,3.90208,2.20144,14.51385,10.84293,16.71841,11.50551,4.25964,1.27774,7.70514,2.94936,12.01062,4.246q.2291.068.46132.1359c1.77064.41181,13.32459,2.63223,14.67069,2.93662,25.5701,5.7891,65.34959,14.79405,65.34959,14.79405s159.01347,24.43932,159.42107,25.02392c.40868.58558-8.54991,8.1-8.54991,8.1l-14.519,5.8839s-20.78953-.38656-28.23127,2.21623c-4.96537,1.73591,1.36929,5.81963-6.64334,5.51415-61.93148-5.81228-163.14834-40.46987-163.14834-40.46987a105.31089,105.31089,0,0,1-20.21492-7.88733c-1.25929-.633-13.97875-5.28775-19.23536-9.52842a24.82463,24.82463,0,0,0-5.39141-3.1273c-2.07665-.88586-2.96888-2.07718-5.03494-2.98409-2.06608-.908-4.48982-3.50233-6.29207-4.85373-4.14487-3.10831-12.1833-11.28223-18.5159-18.15728a36.33982,36.33982,0,0,1-8.08956-15.27955s-2.33734-5.03386.35918-5.93234c2.77654-.92478,5.21344,3.595,5.21344,3.595s4.32975,1.34934,5.03333,1.43778C105.79772,126.02924,101.30316,119.37854,104.17981,119.01829Z" style="fill:#0a98a4"/><path d="M163.32309,173.48689c1.917.16537,3.7762,1.88229,5.12758,2.59644,2.70493,1.42624,7.20316,4.35024,11.53236,5.29834,4.32813.949,13.39835,3.24424,15.79621,4.23429,2.39893.987,4.75634.04638,6.09877.316s2.72079,2.172,5.1002,2.271a72.94047,72.94047,0,0,1,9.57264,1.9265c5.19718,1.33454-3.28371,5.13288-1.9939,5.649,1.79748.71943,7.39966-4.09955,10.24677-3.595,2.71225.48032,3.88.66681,4.56035.74264,2.52749.23481,8.54773,2.016,14.49593,4.00153,8.38026,2.79133,13.17185,2.01721,13.86174,2.07934,1.33929.12,2.10348,1.14386,4.20181,1.99079,2.09714.8468,4.82472-.36975,5.80064.32229,4.07422,2.88506,20.28968,3.8763,33.59323,7.605a97.25293,97.25293,0,0,0,10.13515,1.95388c.54554.08952,1.37985,2.23414.179,3.595-1.54739,1.75274-5.26664,2.81033-4.67361,2.87665.60778.06743,2.87665.35918,2.87665.35918a5.7023,5.7023,0,0,0,2.51639-1.797c1.30823-1.53042,2.93876-3.576,3.23582-3.59608,2.69652-.179,6.4685-.46972,7.64085.00314,2.09928.84692,6.7676,3.71828,8.54665,3.5319,11.64767-.24862,30.74872,3.96572,38.11259,4.65247,3.80988.354-.14538-2.61434-.14538-2.61434S252.34292,190.654,252.798,191.08589c.35864.34548-59.62574-16.09908-85.34956-23.15953-2.33993-.64146-4.39662-1.20394-6.10557-1.66106-1.19974-.56454.09267,4.88532.09267,4.88532s-.79365.631-.35918,1.25766A4.88435,4.88435,0,0,0,163.32309,173.48689Z" style="fill:#007890"/><path d="M322.69573,229.11942a37.4567,37.4567,0,0,1-12.682.455c-2.1994-.40026-5.29188-1.03642-7.95473-1.39248-6.90979-.9237-13.91028-1.43778-17.12289-2.02239-2.84085-.5161,2.3932-.73311,8.17908-.35918,2.84395.18435,5.03386.5393,7.19108.5393s3.48022-.33392,1.61791-.71943c-5.21291-1.07861-22.31371-2.44055-31.99689-4.58719a44.39931,44.39931,0,0,1-10.02405-3.20422c-2.53849-1.12186-4.57459-.394-5.611-.64468-1.21451-.296-3.49868-1.99391-6.79188-2.805-4.118-1.01432-6.40164-.60877-9.53845-1.43036-3.13787-.82372-12.39448-3.00628-15.68985-4.12275A114.02026,114.02026,0,0,0,207.78716,205.27c-3.57709-.51719-8.52823-2.78809-9.13752-3.51917-.612-.72892-2.9678.21281-4.61678-.49508-1.648-.70778-3.17262-2.45847-4.82742-3.4633a23.08626,23.08626,0,0,0-7.47916-2.36582c-2.23413-.24959-6.95984-.58245-9.95394-2.16457-3.86626-2.04243-9.16816-5.03386-10.87612-6.92142-1.69688-1.87493-3.68508-.809-4.67416-3.32535-.40135-1.02067-2.69652-.08952-4.31443,0s-3.4154-.809-6.38157-2.42687c-4.13485-2.51639-5.88338-2.19517-9.16816-3.95525-2.51694-1.34826-2.43216-2.2341-3.68507-3.50547-1.55578-1.579-4.00638-3.50233-4.67413-4.94326,4.78686-1.04591,16.12064,6.576,20.85745,8.43192,2.25785.98488,4.51192,2.02239,6.519,2.95981,4.01427,1.87494,7.0679,3.32955,7.0679,3.32955l36.55411,14.23363s57.49484,13.92817,57.65653,14.51913c.1606.59086,63.62576,15.58187,63.62576,15.58187S323.43307,228.8077,322.69573,229.11942Z" style="fill:#007890"/><path d="M361.78686,229.2606c-.5393.13483-1.61791-1.07861-.26965-2.02239s3.37065-2.96617,9.84229-2.83134,20.08906,1.48309,20.08906,1.48309l-16.71842,2.69652S362.32616,229.12577,361.78686,229.2606Zm36.9423-7.95473c2.42687-.13483,3.37065-2.69652,3.6403-3.50547s-3.50547-.5393-4.71891-.26965-6.60647,2.02239-5.93234,2.56169S396.3023,221.44069,398.72916,221.30587Zm-81.88464,11.32538s4.76421.809,5.97764.809,12.53881-.40448,14.96568-.26965,5.20869.08113,5.93234-.5393c1.88756-1.61791-1.88756-3.77513-1.88756-3.77513Z" style="fill:#007890"/><path d="M133.03256,171.32967c1.78595.91856,4.32283,1.87809,6.02187,2.96725a100.39027,100.39027,0,0,0,9.07809,5.48256c2.06769,1.43778,4.03583,2.98625,7.01095,3.77513,1.71326.454,3.80986.61935,5.40253.97961,1.5931.36649,2.2325,2.529,3.63663,3.28952,1.402.76581,2.36679-.4434,3.96367.11586,1.5958.56043,2.23725,2.727,3.833,3.28641,1.59785.56034,2.37261-.24754,3.96108-.08316,1.58674.16427,1.83115,2.33626,4.00627,2.09185,5.93548-.32337,3.39071,1.11657,6.97147,1.83493,3.58022.71522,5.82275,3.63922,7.62975,4.78837,1.80754,1.14926,4.15329-.2854,5.34676-.11271,1.19121.17064.04045,1.97924,1.039,2.35525.99857.37286,2.75972-.65622,3.75463-.4761.99329.17387,1.6384,2.53753,4.21229,2.48382a41.40061,41.40061,0,0,0,4.95059-.10432,26.90914,26.90914,0,0,0,8.20119,3.7856c2.19572.74586,14.94357,4.03852,17.13033,4.38929,2.18558.35076,5.738-.31916,7.92572.02945,2.18623.34968,5.81542,3.4455,7.021,4.20916,1.20556.76678,2.75649-.849,5.54415-.11908,2.78973.73421,4.621,3.07047,9.19351,3.76779,4.57189.69408,13.28823.50975,25.81118,2.62069,12.522,2.10879,30.09466,8.67837,41.17357,7.83781,10.8756-.82481,11.94159-6.59385,11.13889-6.972-.80367-.57715-14.46423-1.84861-26.62488-3.79086-6.55912-1.05024-13.93766-2.073-25.45794-4.80843-33.43153-7.939-33.82286-6.80558-33.82286-6.80558s-24.68264-5.61534-27.47709-6.54542c-2.79241-.93213-6.616-3.82043-8.81578-4.76421s-5.93655.32337-8.523-.21594c-2.58639-.53823-4.424-3.0736-7.80306-3.59608-1.58309-.2443-2.68963.274-5.54309.11692-3.23636-.178-8.14273-1.0154-8.14273-1.0154s-6.8251-4.21435-18.75558-6.33682c-4.97173-.88685-11.28277-3.32535-17.2588-6.03556-1.9924-.90269-3.94684-1.83482-5.80279-2.75228-4.08792-1.90342-7.45276-2.587-11.48178-4.63889-1.34353-.68468-4.4593-1.99713-5.79751-2.69652-.43243-.27181-8.67363-5.887-8.67363-5.887s-3.41595-1.79912-4.67413-2.51747-1.43833-3.41487-2.69652-3.95417c-.65732-.28128-3.47809-1.03016-5.21291-2.51747-2.51694-2.15721-1.85813-3.62022-3.41595-5.03278-1.43886-1.304-3.71355-2.97985-5.03333-4.31443-3.86734-3.91211-6.38049-7.51863-9.70747-10.9662-1.659-1.71907-1.24978-4.26383-2.33679-5.93234A56.29533,56.29533,0,0,0,86.742,120.0969L79.731,121.71481s13.66272,14.92146,14.9209,16.17911,2.15777,5.34774,3.05625,6.83082,2.153,2.61014,4.85373,5.393a33.97364,33.97364,0,0,0,4.31443,3.41595c2.8761,2.69652,4.63358,1.68426,5.19284,1.83074a3.89374,3.89374,0,0,1,2.15721,2.32461c.7395,4.11325,4.87433,4.563,5.59324,5.91129s8.53878,5.12339,8.53878,5.12339Z" style="fill:#dee3e3"/><path d="M138.87482,151.28591c1.07861.809,2.90987.35391,5.48311,1.34826a51.89413,51.89413,0,0,1,6.38157,3.1463,3.018,3.018,0,0,0,2.06716,2.51639,11.40056,11.40056,0,0,0,8.17961-.809c2.74387-.49927,4.1343,1.25873,7.19055.809,1.97395-.29067,4.22651-1.2324,5.84282-1.16813,4.494.179,6.38157,5.75221,9.07809,5.03278,1.24342-.33176,1.70744-1.34826.98856-2.69652s-2.01291-2.71225-2.15721-4.49348a2.93855,2.93855,0,0,1,1.61791-3.23582c2.01083-.88584,4.31443-2.15721,7.012-1.96445,1.01539.0727,1.55048,3.25686,2.69544,5.91863.70151,1.63055.99856,2.83134,2.06877,3.6856.90634.72258,12.47505,5.75113,12.22278.85426-.11014-1.04914-.68094-6.123-1.16813-8.04533a4.67127,4.67127,0,0,1,.89848-3.95417c1.71109-1.7854,4.60618-3.72668,4.58408-4.71891-.02008-.98908-.57879-4.3334.1264-6.084.70778-1.74648,4.78157-3.57927,6.34525-2.27523a25.73522,25.73522,0,0,1,3.63079,3.30325c1.23447,1.49883-.82578,5.91972-.395,6.67387.30858.53511,2.15461.375,2.78657-.13483a13.41738,13.41738,0,0,0,3.87414-5.38568c.79526-1.97288,5.027-1.147,5.22186,1.07656.15111,1.70321-1.24924,4.4513-1.36615,5.38773-.26965,2.15721-.07692,9.7612,0,11.14525,1.75434,3.28112-.0959,5.48679.07743,6.67282.17376,1.184,2.776,2.4164,3.53708,5.56788,1.93912.40448,4.17906.9523,5.96815,1.21031a7.16115,7.16115,0,0,1,6.76546,1.49258,54.88553,54.88553,0,0,0,5.52786,1.41566c1.589.21488,2.18364-2.07609,2.18364-2.07609s-.04325-6.68544-.07011-8.02106c-.02848-1.33564,1.89707-2.77871,2.0319-3.11579s-1.057-1.13446-1.28086-2.42687c-.1606-.929.33708-1.41565.16956-2.40053-.2348-1.38094.66733-3.52866,1.80117-3.70351a21.92644,21.92644,0,0,1,3.65454-.573,10.6571,10.6571,0,0,1,3.73835-1.17029c.61515-.09373,1.77528,1.00807,2.9103,1.82015,1.13491.81629,1.68059.49927,2.42212,1.64531.47243.73-1.07861,3.77513-1.41566,4.04478-1.353,1.08281-1.21128,1.8812-1.146,2.22461.11165.592,1.06491.23807,3.23582,1.82017,1.04064.75837,2.96617.47187,3.97846,1.60529,1.59891,1.78961.58038,4.13538-.59778,4.46824-2.2641.64253-4.37818-.94594-4.86269-.4898-.48451.455-.35443,6.69384.06159,7.526.41289.83322,5.18713-.55613,6.91884,4.0121,2.5975.51825,10.50272,2.30466,11.3422,2.23725.83948-.06946,1.6958-1.46831,1.858-3.29268.18013-2.02239.2086-5.36778,2.132-8.67308,1.43886-2.47217,3.26633-4.79159,5.25821-5.12339,1.283-.22543,4.42918-.7563,4.42918-.7563s3.2685-4.17432,4.45033-4.44818c1.18075-.27278,4.72948.2623,5.14765,1.39356.4213,1.12812,1.69061,4.91478,1.36088,5.7164-.32973.79741-3.04836,2.62274-3.92784,3.03777-.88588.414,1.96866,1.03331,1.61791,2.786a21.61051,21.61051,0,0,0-.26965,4.35973c.00635.93323-.04638,1.60951,0,2.24674a22.61633,22.61633,0,0,0,1.0965,3.99216c.56034,1.759-.54664,3.4317.572,3.63081,1.39669.24959,11.48652,2.37736,13.46889,2.53212,3.33378-1.61575,6.29995.81111,6.29995.81111s2.02239.67413,2.20778-1.24718c.14852-1.53994-.5077-4.42919.43608-5.95445a27.57542,27.57542,0,0,1,3.92149-3.7761s-1.45256-3.9943.0727-6.60863a6.67845,6.67845,0,0,1,4.285-2.10663,3.42583,3.42583,0,0,1,3.26741,1.52515c1.23447,1.598,1.23652,5.90182,1.23652,5.90182a10.013,10.013,0,0,1,2.53958,1.65059c1.461.2991,3.4139.79946,4.35768,1.81594a12.9721,12.9721,0,0,1,3.7761,1.01648c1.28829,1.15864,2.09724,2.5838,1.598,3.55917a6.22541,6.22541,0,0,1-3.9216,2.54165c-.64565.0137-2.2435-.17064-3.48649-.07271a4.99966,4.99966,0,0,0-2.76391.95857c-1.16071,1.21559-.43081,4.19751-.43081,4.19751s7.57128,1.58737,16.70269,2.97674c15.75876,2.39731,17.57686,1.91809,19.89835,1.96123,2.5206-.20224,3.52866-.58353,3.46438-3.7034-.06633-3.119-.86267-4.5199-.48667-5.51945,1.09975-1.756,5.8344-2.32893,7.29646-2.587,1.91183-.33706,1.68739,5.28776,1.68739,5.28776s-.44969,5.92069-.44969,8.1a27.1498,27.1498,0,0,0,.67413,4.9507,8.6287,8.6287,0,0,1-1.68748,5.39928c-1.08918,1.45258-3.02409,1.99609-3.38122,2.74182-.79839,1.66959,2.17836,2.25,2.75972,3.19474s-1.67055,1.23565-3.70351,1.96134-5.97548,2.06241-4.562,3.24c1.30727,1.08916,12.98654,1.77064,11.2433,2.9325-1.03967.693-10.67972.712-22.55077-.47511-7.88408-.78889-19.98681.58676-21.89336-.32337-1.80537-.86267,16.63-2.54163,16.63-2.54163s-2.03932-1.2967-9.29781-2.62706-18.50373-3.76563-22.20831-3.3906c-2.11612.21486-5.52256,1.18388-8.2096.573-3.9806-.90689-5.08648-4.00476-14.55915-4.64308-3.34638-.22532-17.166-1.46831-25.07439-5.40771-3.34757-1.46734-17.62218-2.0129-20.461-2.53537a9.6591,9.6591,0,0,1-5.11389-2.91353s-5.769,1.11334-8.06475-2.05712a130.032,130.032,0,0,1-14.289-1.18075s-15.71509-5.40781-18.557-6.339c-2.84181-.93321-13.81856-2.38264-15.79987-2.43949-1.98345-.059-3.27012-2.3574-5.41039-2.85766-2.13986-.49929-4.18328,1.22918-6.62816.33911-2.44574-.889-8.7241-2.68908-10.9703-3.53179-2.24683-.84584-3.52769-2.84709-5.22877-3.65292-1.7001-.80475-6.0061-.73735-8.45346-1.72644-2.44694-.98693-4.473-3.05147-7.37068-4.22491s-5.24764.1096-6.64487-.35387c-2.78561-.8795-4.05113-1.75912-4.68051-2.88195s.5598-1.75058-5.03331-4.404c-5.30351-2.51639-5.03333-1.16813-6.83137-1.70744s-7.2806-4.76421-7.91-5.75329c0,0-.08952-1.88648-6.7413-4.583-1.36725-1.0554-2.193-2.43418-3.77513-3.59608-4.285-3.14833-8.44873-5.214-14.2015-10.24677C100.6232,130.08665,93.933,118.658,93.933,118.658l5.393-1.61791,9.887,12.22494s5.93289,6.11139,7.37068,6.29152c.47393.059-1.43251-2.56588-3.23582-5.393-3.66771-5.75221-9.16816-14.0219-9.16816-14.0219l4.31443-1.43778a70.12984,70.12984,0,0,1,3.77513,6.83082c1.57314,3.37065,3.20583,7.76621,4.31443,8.62886,3.23582,2.51639,3.07672,3.52555,3.595,5.03386,2.02239,5.887,12.29342,8.52565,14.0219,9.52734C137.61609,146.70291,137.79622,150.477,138.87482,151.28591Zm81.47964,5.43834c.21064.58991,4.71891,1.48309,6.5849,1.43252a1.87755,1.87755,0,0,0,1.66213-1.02489c.28592-.50242.63248-7.53968.23124-7.73137-.39984-.18852-1.944,1.72536-2.73082,2.03815-.78361.31387-5.12069.49821-5.74745.83633-.5994.32338-.32867.98693-.13483,2.02239C220.41549,155.33176,220.24809,156.43034,220.35446,156.72425Zm-.47351,9.5074c.30868.48764,4.3813,1.09436,5.27513,1.17547.89212.08,1.14915-1.90762,2.81074-2.83242.50565-.28335.55721-1.79588.06687-1.58739a19.82067,19.82067,0,0,1-4.05049.48246c-1.88239.03892-3.72043-.21907-3.96474-.11271C219.52651,163.56458,219.57235,165.7439,219.881,166.23165Zm85.218,11.05993a.69807.69807,0,0,0-.42238.95112,18.1542,18.1542,0,0,0,3.01352,2.01818c.198-.00636.335-.47718.1233-1.26715C307.59631,178.20471,305.49281,177.18728,305.0989,177.29158Z" style="fill:#dee3e3"/><path d="M391.71821,228.31681c-1.61264.50351-5.79751,1.88756-14.0219,1.34826-8.35189-.5477-19.39392,2.44166-20.22389,1.88756-.40448-.26965,9.70747-3.37065,16.44876-3.77513s21.57215-2.42687,22.51593-2.292S396.03264,226.96856,391.71821,228.31681Zm-59.32341-1.88756c-.40448,0-14.0219,1.88756-14.0219,1.88756s2.56169.94378.67413,1.34826-10.65125.67413-18.87563,1.75274-13.21294,2.56169-14.42637,4.04478c-.54665.66778,9.70747-1.21343,18.6955-1.93179,3.7846-.30232,12.58411-.49508,16.76372-.76473s14.29155-.13483,23.05523-4.58408C346.16073,227.21719,332.79928,226.42925,332.39481,226.42925Z" style="fill:#dee3e3"/><path d="M391.52858,212.15347s1.43045,1.94236-.79945,2.75972c-2.17827.79849-3.48543-1.01745-6.31785-.72677a9.38493,9.38493,0,0,0-5.01067,2.469l-1.598-1.30716s1.28192-.809,3.12311-1.74227a21.91611,21.91611,0,0,1,4.21229-1.74325c2.033-.36338,2.78184,1.06286,4.21121,1.598C391.674,214.33182,391.52858,212.15347,391.52858,212.15347Zm-11.18419,7.69781c.653-.1454-3.70351-2.47012-5.80916-3.12311a13.65182,13.65182,0,0,0-6.6812,0c-.32975.15165-.435.72784.36336.87216S379.69129,219.99656,380.34439,219.85127Zm10.745,1.63472c.85629,0-2.82079-1.29766-2.01507-1.98872,1.57585-1.35031,4.9507-2.02444,5.28776-2.4753s-5.61219.17171-8.32448,2.02552C383.89939,220.50955,389.62731,221.486,391.08939,221.486Z" style="fill:#b0ceca"/><path d="M379.10981,214.47711l-1.30716.87119a5.92877,5.92877,0,0,0-5.01067-.87119c-2.508.58254-5.20976,1.5-6.53582,1.08918-2.9926-.92793-4.73261-2.626-6.81615-2.87772-2.08764-.25487-2.73966,1.74432-4.43664,1.086-1.69374-.6573-3.45273-4.087-7.428-4.6968-3.97521-.6078-9.7148,4.268-10.70281,4.38713a7.12351,7.12351,0,0,1-2.78712-.73205s1.27869-9.53685-1.85909-8.08114c-8.18652,1.463-14.37482-.58568-15.1595-.27181a3.193,3.193,0,0,0-2.01924,2.7239c.03159,1.38624,1.84442,3.02519,1.84442,3.02519l-5.55635-.47718s5.70907-6.36.54459-7.04149a79.07118,79.07118,0,0,1-16.93435-4.49348c-5.49421-2.311-9.402-5.80915-10.02878-5.92812-1.39248-.26652-2.95668.55829-4.55248.19383-1.59677-.36133-1.51674-1.25453-3.101-1.21872-1.58469.03159-9.61686,4.167-11.28536,4.89483-1.668.72892-3.85883.18013-4.37289-.69948-.5145-.88058.099-4.65777-1.09382-4.83054a12.9458,12.9458,0,0,1-3.68086-.81424c-1.4462-.63929-2.66017-1.82328-3.41282-2.10868-1.49732-.56142-4.44138.68988-5.74164.12426-1.30143-.56778-1.53475-2.24674-2.72607-2.42052-1.19186-.17073-4.62669,1.38925-7.13315-.04431-2.5069-1.43142-5.81585-3.3453-6.89823-3.02409-1.08281.32024-5.03643.77421-6.82025,5.29726-.47772.80572.53769,1.97288.53769,1.97288l-5.27137-.98067s2.6002-.4213,3.42382-2.054c1.65589-3.2822,3.94317-3.05785,3.97316-4.04693.06008-1.88541-6.99509-2.924-14.34158-3.75925-7.34747-.83215-13.78645-.89319-17.76489-1.70118a18.19722,18.19722,0,0,1-6.81022-3.52014,26.07068,26.07068,0,0,1-4.66573-5.14765c-.40868-.58568.59561.08532,1.39615.46551.8.37818,2.94665,3.50236,7.57711,2.31417,1.68112-.13688,19.49022,3.64666,19.49022,3.64666l42.8699,8.49824,33.87291,4.42822s83.09074,18.24044,83.392,18.43318C372.07893,206.27916,379.10981,214.47711,379.10981,214.47711Z" style="fill:#0a98a4"/><path d="M208.38438,198.4739c-.61092-.77831,2.67128-.158,2.67128-.158l2.77655.14227,6.50012,2.93144s8.24229,1.01217,12.51671,1.71368.6615-1.50205.6615-1.50205,22.47634,4.27765,24.1717,4.83583a14.01645,14.01645,0,0,1,4.00271,1.99607c2.00815,1.243,31.12785,10.428,31.12785,10.428s-12.79369-.91531-21.58056-3.99743c-8.78159-3.08309-10.50272-4.82634-17.18761-7.06143-6.6823-2.23736-21.994,4.33018-31.22331-1.1197C211.54125,200.02237,208.99541,199.25235,208.38438,198.4739Z" style="fill:#0a98a4"/><path d="M181.23229,165.27093c-.2043-.29068-2.43842-1.11226-3.8873-2.83977-1.44837-1.72737-2.96931-2.66382-5.03333-2.51639-3.77513.26965-8.53878,3.59608-7.72983,4.58408,1.619,1.97709,4.1343-2.51639,10.98722-.09684,1.93761.6836,3.93994,1.07753,4.28391,1.1965C180.6508,165.87981,181.641,165.85867,181.23229,165.27093Z" style="fill:#a8c8c6"/><path d="M379.40061,216.65547s2.83341-2.32364,4.43027-2.54175a2.23228,2.23228,0,0,1,2.32364,2.61445,3.04878,3.04878,0,0,1-3.12311,1.67055A12.74385,12.74385,0,0,1,379.40061,216.65547Z" style="fill:#0a98a4"/><path d="M182.738,175.7347c-.5393-1.34826-2.60647-5.21291-5.393-5.93234-1.16135-.30016-5.30243.8974-5.75221.988s-.5393.71943.5393,1.16921c.37027.1549,3.23582-.0906,7.8199,4.04478C180.63818,176.62371,183.27733,177.083,182.738,175.7347Z" style="fill:#a8c8c6"/><path d="M194.766,172.85806a7.227,7.227,0,0,0-3.00576-1.56946,26.78892,26.78892,0,0,0-.83678-4.44084c-.47189-1.17861-5.70691-9.83064-6.31686-10.56064a2.03391,2.03391,0,0,1-.0563-2.67333,13.24386,13.24386,0,0,1,4.41022-2.174c.59408-.01262,1.32669.19275,1.836,2.48587.65784,2.95668,1.76374,6.05347,4.17119,7.487,2.40788,1.43563,23.29858,5.74585,23.29858,5.74585s60.90808,13.70694,80.15767,17.45791c60.85287,11.86047,79.63995,14.29047,86.18429,14.59485,6.54219.30654,6.51382-.81737,6.62966-2.45426a65.96283,65.96283,0,0,0-.46876-7.76621c.20752-.5203,1.70959-1.03331,3.22849-1.45567,1.54942-.42866,2.46893-.14529,2.46893.94378,0,.80583-.237,5.57424-.58029,9.94875-.29079,3.70351,1.66947,4.93905.50772,8.49715a9.8927,9.8927,0,0,1-3.05054,3.70352c-1.96015,1.01646-3.34-1.88864-4.13851-.1454-.80054,1.74853,2.32364.58148,2.32364,2.033,0,.94486-.58137,1.23554-1.81594,1.09015s-1.01648-1.59785-4.13959-1.59785c-2.10663,0-6.39053,2.46893-6.39053,2.46893s-1.59785-1.88855-5.44675-1.08907a16.58692,16.58692,0,0,1-6.24514.5077c-2.62706-.48872-4.286-2.38157-6.25366-2.82822-1.4915-.26652-12.47658-6.86663-12.47658-6.86663l-59.25707-12.85376-10.61339-2.89457-45.50158-8.83949-24.76267-4.67156S195.97943,174.022,194.766,172.85806Z" style="fill:#673112"/><path d="M200.52392,168.92288c-2.07761-1.12078-4.50923-3.66878-4.42811-3.37388a10.863,10.863,0,0,0,2.13456,2.55544c3.0283,2.609,6.71811,3.89313,15.14257,6.43691,6.93253,2.09291,16.42244,3.80986,16.42244,3.80986l51.49725,10.94085,49.84236,10.5301s2.41531,2.27523,31.61353,5.96191a123.98235,123.98235,0,0,0,17.55164.96374c5.49626.03268,11.4876-3.46017,10.8756-5.43305-6.01764,3.24844-5.73334,2.64809-12.857,3.09895-7.269.45711-16.80794-1.37673-16.80794-1.37673L211.60025,172.70642S204.20273,170.9031,200.52392,168.92288Z" style="fill:#ebb141"/><path d="M193.40663,171.84688a37.14686,37.14686,0,0,0-1.1608-5.62052c-.33286-.79741-2.19453-3.871-4.00519-6.74766a28.275,28.275,0,0,1-2.47064-4.405c-.01522-.74262,2.47433-2.37941,3.22481-2.05076.35443.15586,1.0454,2.51639,2.17512,4.4608a24.00618,24.00618,0,0,0,2.95668,3.94889s-1.06491,8.19386,10.43274,10.91993c25.97555,6.15982,60.86278,13.52358,94.32809,20.13221,26.408,5.21291,31.38392,6.62438,42.8946,8.99332,9.87605,2.03294,13.2783,2.58693,26.45436,3.892,19.73722,1.955,22.14305-3.38965,22.6486-3.89938,1.59905-1.62007,1.245-10.87042,1.07861-11.75727-.1674-.88908,4.08274-1.67689,4.08274-1.67689l-.30546,14.89406-1.877,3.57709s-.52248,2.0898-1.5368,2.668c-.848.48343-2.17836-.87108-4.067.21809a1.25267,1.25267,0,0,0-.72569,1.59785,13.9404,13.9404,0,0,0-3.55811.0727c-2.034.28961-1.67065,1.23447-4.93905,1.16175s-15.79577-.43391-16.33928-.58137c-.84584-.2307-2.61852-1.34512-3.90154-1.2187-1.286.12533-2.79446,1.29767-3.74976.67305-.95329-.62356-3.5729-5.02643-8.62994-5.21507-2.52277-.09373-4.47246,1.48416-5.72591.96492-1.24612-.51935-6.03869-4.62626-6.03869-4.62626s-7.38283,2.18882-13.45.88164c-6.07139-1.30823-23.57341-6.92669-27.30852-7.93681-3.73727-1.009-7.12366-4.209-8.22546-4.77683-1.09856-.572-8.09376-.967-9.719-.58676-1.62742.3814-9.20873.14852-11.31277-.94693-2.10242-1.0965-6.75714-1.04807-6.75714-1.04807a17.7893,17.7893,0,0,0-4.61246-2.67538,10.36538,10.36538,0,0,0-4.74846.2991,10.19141,10.19141,0,0,0-3.615-2.29938c-1.94505-.60467-5.74175.12318-5.74175.12318a56.17876,56.17876,0,0,0-8.20226-3.792c-2.79026-.78262-14.5006-1.86748-17.2861-2.40366-2.78345-.534-10.03979-1.718-13.71223-2.08344A12.57024,12.57024,0,0,1,193.40663,171.84688Z" style="fill:#965025"/><path d="M321.98375,221.31225c10.14452,1.54834,22.50225,3.05667,23.644,3.2589,1.98755.35292-3.68042,4.04057-12.59684,3.83411-12.29224-.5298-28.47772-7.11944-38.2252-8.89213-9.74123-1.77172-32.31873-9.09449-33.32045-11.17577,1.18765-.02535,25.89661,6.57907,41.20776,9.42412a3.30828,3.30828,0,0,1,4.03216.85318C307.33086,219.1971,314.47664,220.163,321.98375,221.31225Z" style="fill:#965025"/><path d="M245.38894,205.9052c.45915-.28756-8.01374-1.59472-16.72165-3.80144-9.85913-2.49956-20.12489-5.51526-20.12489-5.51526a5.539,5.539,0,0,0,1.62007,1.55051c.79732.37816,1.78067-.03894,3.58292.91326,1.80322.95326,7.03144,4.603,12.61464,6.26941C231.94106,206.98489,244.41246,206.52238,245.38894,205.9052Z" style="fill:#965025"/><path d="M205.54786,195.46459l-10.36369-2.94825a36.67467,36.67467,0,0,0,4.41711,2.87557C201.20388,196.15136,205.54786,195.46459,205.54786,195.46459Z" style="fill:#965025"/><path d="M381.50616,216.51007s.82686-1.17126,1.598-1.30716a.88234.88234,0,0,1,.72677,1.59785A3.64231,3.64231,0,0,1,381.50616,216.51007Z" style="fill:#965025"/><path d="M324.24731,225.22425c8.2191,1.09759,19.06839.3129,18.88091.63724-.42767.75319-6.34739,1.91917-14.98045,1.21031-8.632-.70681-26.42275-5.97236-26.42275-5.97236S313.50859,223.78754,324.24731,225.22425Z" style="fill:#673112"/><path d="M195.60547,163.48034a12.2335,12.2335,0,0,0,3.50806,4.30807c1.35829,1.19348,4.96591,2.9377,8.405,3.90682,14.15985,3.98049,73.44324,16.118,97.16311,20.81475,18.03939,3.57084,24.71532,5.3994,37.02762,7.73362,4.2123.79839,8.09279,1.72006,13.69542,2.57636,12.59359,1.92553,22.25154,2.5069,29.58586,1.00384a9.8506,9.8506,0,0,0,5.5942-3.7983c.36241-.58148-2.03393,1.45256-16.413-.50878C291.73,186.26376,230.3842,171.06,203.81454,165.23836,199.33422,164.145,195.43851,162.59232,195.60547,163.48034Z" style="fill:#221f20"/><path d="M219.20627,169.441c.59776.13483,17.242,3.86681,17.83812,4.00055.59776.1359-.72784.61094-1.39723.55194-.67046-.06213-16.1227-3.59392-16.42244-3.66133C218.92723,170.2637,218.60958,169.30417,219.20627,169.441Z" style="fill:#ebb141"/><path d="M243.03152,175.47035c-.37341-.06741.5804-.68254,1.24978-.54772.67251.13483,8.36029,1.82856,8.65789,1.896.30016.06849.24062.81208-.355.751C251.99011,177.50849,243.40439,175.53669,243.03152,175.47035Z" style="fill:#ebb141"/><path d="M276.4526,182.11371c.5983.13794,13.28132,2.61433,13.65324,2.68174.37491.06633.39184.95856-.05481.89427-.4487-.06536-14.17829-2.89455-14.40113-2.88927C275.42717,182.80467,275.85581,181.97984,276.4526,182.11371Z" style="fill:#ebb141"/><path d="M301.66084,187.18435c-.44557-.06633-.20968.67316.38862.809.59722.1359,19.09372,3.74352,19.6203,3.88051.51827.139,1.47575-.40243.8027-.61308C321.79833,191.05429,302.10846,187.24756,301.66084,187.18435Z" style="fill:#ebb141"/><path d="M328.90193,192.589c.44557.06527,4.61989.79215,5.14237.85524.5214.06428.54243,1.105.02006.966-.52248-.137-5.81973-1.13869-6.26423-1.205C327.35359,193.142,328.45431,192.5227,328.90193,192.589Z" style="fill:#ebb141"/><path d="M353.44446,196.85707c.395.02633,11.84365,2.052,18.408,2.94828,5.22238.71307,9.03968,1.00481,11.36538,1.13761,1.83708.10527,1.80753.34127.80475.456a32.05152,32.05152,0,0,1-4.43867.22228c-1.03438-.04-3.49287-.32864-7.8199-.809-3.23271-.35711-7.74615-1.26293-11.19055-1.88756-3.199-.5793-5.42153-.87635-6.22412-1.29561C353.82057,197.35323,352.62817,196.80025,353.44446,196.85707Z" style="fill:#ebb141"/><path d="M395.52277,199.29981c-.00626-2.73028-1.00688-4.83378-1.08907-6.68133-.0906-2.02239-.14432-3.84881.14529-4.2123s1.76753-1.12378,1.815-.50865c.04422.57608.07257,6.53582-.36349,11.32958-.218,2.39839.99327,2.84709.72685,4.64729-.52032,3.50125-2.174,4.05319-2.61442,4.21218C393.69949,208.24254,395.54067,207.02588,395.52277,199.29981Z" style="fill:#ebb141"/><path d="M197.62894,164.25348a16.83167,16.83167,0,0,0,3.833,2.14772,26.70212,26.70212,0,0,0,4.93582,1.602c.60046.21067-.021-1.03954-1.06534-1.23866C201.6021,166.02616,197.54675,163.95847,197.62894,164.25348Z" style="fill:#ebb141"/><path d="M243.32749,171.97114c-1.17653.47189-20.71519,8.44453-25.91969,10.65761-7.36225,3.13044-11.04677,11.53073-11.62189,12.43244-.5751.90583,1.23652,2.20252,1.95552,1.14916.72094-1.0565,3.694-7.95365,9.86861-11.05885,5.106-2.56806,25.321-10.942,26.79347-11.56871C245.87548,172.95709,244.50781,171.50032,243.32749,171.97114Z" style="fill:#673112"/><path d="M303.13866,217.79931c.42344-1.19659,4.95694-13.65742,11.34327-18.5143,6.43368-4.89168,12.43343-9.18185,13.46048-9.797,1.758-1.22819,3.28211.52249,2.113,1.44309-1.17137.91423-10.01088,7.45857-14.48332,10.70593-5.26662,3.82679-9.0207,15.79362-9.59367,16.84483C305.40641,219.53416,302.72251,218.99809,303.13866,217.79931Z" style="fill:#673112"/><path d="M328.08985,189.33531c-1.17029.91637-11.82574,8.30862-14.1662,9.99393-2.34264,1.68221-5.12869,7.20684-3.95732,6.39055,1.30814-.91218,2.11817-2.81872,4.84737-4.80735,4.03529-2.94093,13.02224-9.49056,14.19566-10.25844C330.17965,189.88508,329.25582,188.41893,328.08985,189.33531Z" style="fill:#ebb141"/><path d="M243.02787,171.829c-2.35688.94172-20.32454,8.30657-24.738,10.33423-2.62274,1.2018-5.61415,3.83619-5.02016,3.82249.59464-.01262,1.68856-.88165,6.2268-2.9556,6.47425-2.96412,22.38479-9.244,24.45084-9.88231C245.28667,172.73587,244.40717,171.2791,243.02787,171.829Z" style="fill:#ebb141"/><path d="M231.72406,141.0192a7.04788,7.04788,0,0,1-.7162,2.39095c0,1.19132-.41614,20.72533-.4609,21.6017-.0658,1.29142,3.31014,1.71477,3.692,5.668.01834.197-6.36271-1.35042-7.86044-1.61478.91734-3.48651,3.00035-2.73761,3.17627-4.129.17376-1.39043.81316-22.50117.81316-22.50117Z" style="fill:#b47c3a"/><path d="M218.42525,167.64937a36.99844,36.99844,0,0,1,.20278-4.46188c.1907-.30125.2744-1.09446,1.06653-1.11237.28756-.00422,1.48309.16546,2.875.137,2.4163-.05264,5.43942-.31387,5.43942-.31387s2.57485-.05371,2.9583-.6573a4.28687,4.28687,0,0,0,.04573-2.47637c-.10743-.39391-1.48675-.06633-1.88012.03894-.394.10743-.67629.80691-1.26823.91746-.5914.11379-6.23726.13375-9.16029-2.27944-.30437-.29175.04746-2.37833-.18121-3.85935-.22953-1.48-.6367-1.96447-.65461-2.75865.19544-.15273,2.043-.03162,3.95784-.18433a19.41409,19.41409,0,0,0,4.34237-.78372c.88219-.4171,3.57871-4.03949,4.502-7.131a6.18138,6.18138,0,0,0,1.16856-1.01324c.28713-.40245-.03311-1.48416-.03311-1.48416l-1.67109.52873-5.01864,6.25042-11.97838.25283-3.09624,3.43493,3.97467,5.26134,1.35094,12.25341Z" style="fill:#683617"/><path d="M216.00162,146.80194l-.46768-3.358.63088-2.884,4.44246-.69-.24549,2.38264-.57565.90378s.31711.98594-.16686,1.49042c-.48408.50565-1.44943,1.7138-1.23662,2.40163C218.59588,147.73828,216.00162,146.80194,216.00162,146.80194Z" style="fill:#683617"/><path d="M216.16168,168.2919c-.08748.59615-6.33477.23384-7.1779-2.12453a33.65063,33.65063,0,0,1,.39023-4.96019s-.52668-4.76518-.81316-5.62893a11.581,11.581,0,0,1-.50026-4.94326c.35594-1.88756,4.65721-4.55464,4.93528-5.3541.28078-.79731.848-2.09606.848-2.09606l2.08085.05371s-.23751,2.7786.46294,3.15892c.70153.38021,7.34424.63616,7.92938.22748.58568-.40653,4.47557-3.75927,5.04173-5.06018.18908-.49929-.02308-1.087.36824-1.29562.39283-.20645,2.56741-.44978,1.88853.257-.67834.70886-4.90583,6.83826-5.29715,7.04568-.39077.20655-.50878-.58245-.80475-.57511-.29759.00431-.7768.80583-1.56526.92383-.79053.11692-9.60739.00626-10.78392.52561a3.57491,3.57491,0,0,0-1.92813,2.51855c-.08424.69516,2.95668,3.9984,3.46276,4.48086C215.2042,155.93214,216.24754,167.69467,216.16168,168.2919Z" style="fill:#c38d2c"/><path d="M213.65478,143.584a33.67217,33.67217,0,0,1-.30762-5.04335c.17432-1.1924,1.54791-1.88336,3.52339-2.05712,1.48309-.13062,3.82043,2.69231,3.92676,2.98612.10484.295.01844.89115-.17743.99437-.19588.10214-.50091-.2854-.99221-.079-.49087.20957-.66992,1.10491-.66151,1.502.00787.39294-.78577.3129-.78577.3129s-.226-1.38094-.72256-1.37037c-.98757.11787-.75319,1.798-.75319,1.798s-.48192.60348-.67413.90689A8.19135,8.19135,0,0,0,213.65478,143.584Z" style="fill:#221f20"/><path d="M213.17232,153.499a9.96737,9.96737,0,0,1-1.93017-2.23736,2.96542,2.96542,0,0,1-3.151.85749c-.09481-.02321-.55829,1.69794,1.68058,4.42186,1.57682,1.92337,3.091,8.21381,3.36536,9.24086.27386,1.02694,1.20448.7657,1.91183,1.345.70411.57932.92059,1.46734,1.21442,1.262.29338-.20333-.24335-11.38546-.86419-12.562A6.26011,6.26011,0,0,0,213.17232,153.499Z" style="fill:#945c25"/><path d="M211.40114,167.997c4.97065.88478,7.10371-1.23975,7.10371-1.23975L218.075,169.836l-5.93072.5214S210.00974,167.7294,211.40114,167.997Z" style="fill:#221f20"/><polygon points="267.977 164.316 268.397 165.99 268.508 175.299 269.303 175.382 269.189 166.071 269.561 164.281 267.977 164.316" style="fill:#865522"/><path d="M257.86981,168.79118a23.02011,23.02011,0,0,1-.39822,4.563c-.84477,2.19833-2.20877,3.24112-2.88193,4.246-.67089,1.00591-1.068,2.71861-.61824,3.457.18324.30018,7.3027.34018,7.3027.34018l1.175-2.20563-2.29474-10.15306Z" style="fill:#fe5"/><path d="M261.05656,160.30244l-1.2734.62246-2.0856,9.05651s2.2146,1.63691,2.44261,3.11892c.23017,1.481,1.13394,8.09484,1.13394,8.09484l2.02239,1.55048a15.87225,15.87225,0,0,0,1.22185-4.09319c.0343-.75524-.07529-2.93144-.21064-4.40084a4.71889,4.71889,0,0,1,.5393-1.82013s1.75218-1.86655,2.45209-2.65337c.72838-.811.35552-2.2256.227-3.3727a6.08591,6.08591,0,0,1,.06053-1.78326l-.97012-3.7446Z" style="fill:#c5ab2e"/><path d="M268.83493,176.67741l-.67888.70791-.208-.84165a2.33173,2.33173,0,0,1-1.01121-.5393c-.40448-.40448-1.62471-1.92648-1.62471-1.92648a9.837,9.837,0,0,1-3.11426-3.03574,12.64281,12.64281,0,0,1-2.75336-2.68282l-1.63366,2.31307s-.37029-5.72591-.31183-6.60011c.13483-2.02239,2.83134-3.43808,2.83134-3.43808l.56832,1.55472.95273,2.84923-.36349,1.49464,4.80476,7.02993Z" style="fill:#865522"/><path d="M260.768,160.70691s.632,1.02274,1.13383,2.054c.59776,1.22821.92016,2.94611,1.36519,3.635a2.41424,2.41424,0,0,0,3.37432.32649c.38335-.6035-.22282-3.33376-.50349-5.0412a1.26275,1.26275,0,0,1,.12479-.97959,8.99966,8.99966,0,0,0,1.34826-1.75274c.316-.69518.68362-1.7865.80475-1.87074.29435-.20645-.42821-1.57682-.42821-1.57682s-3.17154-.258-3.96679-.2138c-1.60053.08845-2.89671,3.5276-2.89671,3.5276Z" style="fill:#865522"/><path d="M269.66913,164.6779a7.88206,7.88206,0,0,0,3.80674,1.68642,3.69265,3.69265,0,0,0,2.06455-.32649,1.84841,1.84841,0,0,0-.73678-2.06564c-.90486-.57511-2.29162-.64362-3.28912-1.01961a18.38113,18.38113,0,0,1-2.80762-1.62525,4.77,4.77,0,0,0-2.2862-.34548s.66149,3.15674.87215,3.74449C269.69545,165.963,269.66913,164.6779,269.66913,164.6779Z" style="fill:#865522"/><path d="M254.75134,180.44521c.58407-.50662,1.59051-1.6727,2.68025-1.47469a6.79642,6.79642,0,0,1,3.6403,2.08982c.809.94378,1.53937,2.04979,1.146,2.15721-.85534.23492-7.72822-1.08174-8.039-1.67055C254.07408,181.25417,254.16674,180.95291,254.75134,180.44521Z" style="fill:#865522"/><path d="M260.93706,162.79141c-.20592-.96167-.55776-1.1555-.87638-1.01118a3.08749,3.08749,0,0,0-1.75274,1.955,4.20308,4.20308,0,0,0,1.096,2.64487,33.8863,33.8863,0,0,1,3.14155,3.30011c.70886,1.51048,2.72392,3.23582,4.06009,4.66832a17.28189,17.28189,0,0,0,1.94915,1.99294,1.73139,1.73139,0,0,0,1.146.26965s.13483-1.07861-.13483-1.41569a2.81676,2.81676,0,0,0-.77575-.59721l-1.80171-.85318s-1.33888-2.44585-1.95659-3.52338a5.80422,5.80422,0,0,0-2.0198-1.83913,7.02477,7.02477,0,0,1-.72-1.27243c-.58353-.99016-1.33294-2.14988-1.33294-2.14988A5.98858,5.98858,0,0,0,260.93706,162.79141Z" style="fill:#e1a45a"/><path d="M269.42159,162.40173a2.42422,2.42422,0,0,0-1.678.23481,7.57041,7.57041,0,0,0-.06416,1.68532c.108.394,1.27975.55937,1.27975.55937s.692-1.01121,1.18873-.91013,4.96851,1.02067,4.36178.43822a20.02687,20.02687,0,0,0-3.41595-1.16813A10.96637,10.96637,0,0,1,269.42159,162.40173Z" style="fill:#e1a45a"/><path d="M268.2334,153.11665a7.571,7.571,0,0,1,1.50153.7615c.50457.38765.13386,1.58318.04476,2.07826-.08952.496-1.364,1.12175-1.364,1.12175s-2.78712-.73518-3.4839-.81942a2.09774,2.09774,0,0,0-1.75328,1.32615,3.14269,3.14269,0,0,0,.23017,1.47985c.10322.197.24021,1.975-.94961,2.00136a6.53814,6.53814,0,0,1-2.18612-.34968s-.02427-1.18819-.325-1.37986a7.90632,7.90632,0,0,1-1.3008-.6668,2.5177,2.5177,0,0,1-.04489-2.07718c.28713-.40232-.13321-1.48515-.04153-1.88012a2.626,2.626,0,0,1,1.93966-1.92553c1.1471-.22964,2.6702.29392,2.97568.1359.58718-.30967.66149-1.402,2.5496-1.14494A3.60308,3.60308,0,0,1,268.2334,153.11665Z" style="fill:#221f20"/><path d="M266.53232,153.75808a10.86269,10.86269,0,0,0-2.08979,1.21343c-.29814.00735,1.313-1.99918,2.39784-2.12139.39768-.00949,1.006.671,1.006.671A3.768,3.768,0,0,0,266.53232,153.75808Z" style="fill:#fe5"/><path d="M266.15362,185.65176a7.04112,7.04112,0,0,0-2.3189,2.824,27.524,27.524,0,0,1,5.90818,2.944,4.157,4.157,0,0,0,1.68-.13168l4.13063-1.47672a5.29827,5.29827,0,0,0,.6504-1.99607c-2.19885-.94378-2.11666-1.64-2.11666-1.64l-4.18219-1.09759A5.68043,5.68043,0,0,0,266.15362,185.65176Z" style="fill:#60250f"/><path d="M268.74692,177.27465c-.49346.10851-.58881,1.06912-1.25658,1.41891-1.176.61405-4.31335,2.06769-4.62992,5.84282-.20957,2.51316,2.72079,3.773,6.69438,2.72909,4.53145-1.18809,7.24112-4.208,6.38007-7.3712-.75156-2.7607-5.48946-1.95174-5.98455-1.94645C269.45535,177.95093,269.24038,177.16517,268.74692,177.27465Z" style="fill:#221f20"/><path d="M267.85741,177.29892c-1.17656.61405-5.007,2.08139-5.31248,6.35052-.17959,2.51639,3.43914,3.39384,7.37595,2.2215,3.93735-1.17245,6.94774-4.00476,6.08874-7.16584-.75308-2.76177-5.19705-2.15721-5.69213-2.15193A7.883,7.883,0,0,0,267.85741,177.29892Z" style="fill:#965025"/><path d="M268.93018,176.57733c-.49184.10851-.58978,1.07019-1.25658,1.41891-1.174.614-4.31389,2.06661-4.63046,5.84379-.21011,2.51326,2.75821,3.90262,6.69556,2.7292,3.93681-1.17547,6.84452-4.09849,5.98552-7.26162-.751-2.7608-5.096-2.06036-5.59-2.05712C269.63968,177.25469,269.42429,176.46677,268.93018,176.57733Z" style="fill:#cc9f2c"/><path d="M268.757,176.40883c-.47191,0-.40663.77629-.39392,1.36931.0121.5941.0137,5.34989.40178,4.94541.28281-.29394.59884-4.96646.59884-4.96646l.60673-.5393-.33708-.5393A1.77862,1.77862,0,0,0,268.757,176.40883Z" style="fill:#865522"/><path d="M263.85371,184.61112c.0864-.49713,1.03331,2.0582,5.45624.47825,4.25381-1.51792,5.94809-4.48517,6.05509-4.09116.10581.39391-1.80494,3.70243-6.03556,4.98326C265.09767,187.25813,263.76419,185.10933,263.85371,184.61112Z" style="fill:#dee3e3"/><path d="M266.73458,157.39838c.6067.47191-1.07861.06743-1.55051.5393-.43921.43923.49033.58991.5393,1.07861.06743.67413-.74153,1.146-.74153,1.955,0,.47187-.237.336-.5393.13483-.809-.5393-.94378-2.292-.94378-2.292s-.64092.019-.74156-.20226a2.11768,2.11768,0,0,1,.20225-2.08978.48227.48227,0,0,1,.6067.13483l.13483.87635s.15489.256.33708.06743c.23437-.24333.52246-.94378.67413-.94378A5.14709,5.14709,0,0,1,266.73458,157.39838Z" style="fill:#e1a45a"/><path d="M256.08333,180.45361a1.16472,1.16472,0,0,1,1.75274-.809,13.55633,13.55633,0,0,1,3.23582,3.50547,7.58223,7.58223,0,0,1-1.88756-.26965A4.3099,4.3099,0,0,1,256.08333,180.45361Z" style="fill:#e1a45a"/><path d="M262.1505,161.578a4.16119,4.16119,0,0,0,.67413,1.34826c.20222.26965.47188-1.07861.337-1.21343S262.21789,161.44315,262.1505,161.578Z" style="fill:#e1a45a"/><polygon points="308.547 176.328 309.91 186.851 310.803 186.978 309.334 176.115 308.547 176.328" style="fill:#945c25"/><path d="M295.97388,185.81085c.80475.10635,4.06378.30967,4.13743-.97851.07162-1.2925.41819-3.57709.81532-3.58551.16427-.00431,1.33035.573,2.79758,1.12909,2.02347.76786,3.23379,1.26821,3.23379,1.26821a6.46273,6.46273,0,0,0,1.66213,1.25873c.5393.13483,1.05227.40029,1.08916.18013-.22543-1.304-.01055-1.79912.12427-1.97817s1.04278.1549,1.03438-.04422c.09792-.4297.08952-.76473-.58461-1.21451a21.44185,21.44185,0,0,1-3.01039-.23911c-.79107-.1948-4.92645-3.46222-4.92645-3.46222l2.12248-2.62069a18.48908,18.48908,0,0,0,3.50224,1.70636,2.15184,2.15184,0,0,0,1.6685-.72784c.5088-.54353.33706-1.18916.19384-2.02661a9.45988,9.45988,0,0,1-.37073-1.63472c.18854-.49821.48127-.80162.46865-1.29562-.01046-.49616-.8068-1.03331-1.40726-.96374a4.79753,4.79753,0,0,0-1.92648.74886l-1.44621-1.07331a14.327,14.327,0,0,1,.75211-1.796c.38023-.41183.96375.44243,1.68318.12747a7.21425,7.21425,0,0,0,2.44055-1.45675c.06946-.09794.08532-.2991.30127-.43081.28226-.1717.61091-.27073.67413-.315a5.86309,5.86309,0,0,0,.76473-1.61477l-1.81812-1.64736s-5.22132,1.3008-7.7609,3.03885c-2.53742,1.738-9.29769,18.47007-9.29769,18.47007A9.9594,9.9594,0,0,0,295.97388,185.81085Z" style="fill:#673112"/><path d="M296.48581,184.67852a1.11231,1.11231,0,0,0,1.07861-.85426c.75522-1.699.572-3.41173.41924-5.885-.15165-2.47316,2.73966-6.09974,3.52866-6.3146.79-.215,4.95061,3.66024,6.29887,3.97519.888.20754.99748-.96167.87948-1.75274-.11583-.78791-1.02381-1.56105-1.82748-2.23831-.336-.27916-.61934-1.33348-1.16391-2.07612-.77521-1.05227-1.48524-1.33347-1.39886-2.02658a6.07758,6.07758,0,0,1,.94908-1.90342l-1.41569-1.25766a33.85649,33.85649,0,0,0-5.42464,1.008c-2.65122,1.14388-5.215,6.25152-5.38569,7.54186-.17162,1.29142-1.12382,7.96951-1.3914,9.26608C291.20967,185.63288,296.48581,184.67852,296.48581,184.67852Z" style="fill:#945c25"/><path d="M295.01,177.80347a.83945.83945,0,0,0,1.17557-.61619c.27494-.99857,2.24674-6.09251,2.93036-6.50325.68675-.40868,3.358-.46768,6.57066,1.54412.59724.18543.68146-.40867.47718-.90051a11.91949,11.91949,0,0,0-1.184-1.92975c-.65624-.88056-1.51578-1.63159-1.57261-1.97709-.11381-.692.76365-1.75274.94378-1.88756s-.4487-.72051-.76365-.62991-3.2875.90378-4.96118,1.43359c-1.67055.532-3.47387,4.2344-3.63825,5.82383C294.82259,173.74814,295.01,177.80347,295.01,177.80347Z" style="fill:#c38d2c"/><path d="M303.73371,164.34721a17.61531,17.61531,0,0,1,3.18955-3.831,3.622,3.622,0,0,1,3.26419-.26857c2.09617.84789,1.54532,2.9377,2.26572,4.11219.415.68146-.66356,1.4009-.66356,1.4009l-.79418-.08208s-1.07548.61824-1.47888.32757c-.40448-.28864.9564-1.50521.06418-1.58631-.89427-.07906-1.37242.72148-1.9581,1.03223a6.73671,6.73671,0,0,1-2.37314.15057Z" style="fill:#221f20"/><path d="M310.46551,182.6761c-.40651-.34548-.52658,1.07019-.27168,2.00242.0906.33072.20956.9754.58353.5393A1.9813,1.9813,0,0,0,310.46551,182.6761Z" style="fill:#673112"/><path d="M291.62893,183.12911c.01575.66777-.1496,3.27055-.1496,3.27055l8.58669,2.19518s.32552-3.44971.0453-3.76251C299.80693,186.81784,292.2872,185.93725,291.62893,183.12911Z" style="fill:#221f20"/><path d="M336.93777,204.79812a8.47265,8.47265,0,0,0,2.61961,2.27414c1.20718.52559,2.44272,1.11127,1.76859,1.59267-1.41459,1.02381-4.404,4.385-4.85265,4.71049-.63411.46132-.95856.24321-.95856.24321Z" style="fill:#10757f"/><path d="M335.4958,191.10486c-1.62007,2.83665-.04111,9.21984-.04111,9.21984a15.11254,15.11254,0,0,1-.90267,2.37519c-.43081.7531-2.82919.30235-5.08759,2.43217-.21907.2264,1.363,1.15648,1.363,1.15648l6.12088-1.98755.45819-13.4552S335.637,190.8047,335.4958,191.10486Z" style="fill:#dee3e3"/><path d="M337.58666,199.31243l3.70881.88683s-1.1661.09168-.551.97754c1.40726,2.02552,1.5832,5.63745,1.5832,5.63745a2.33763,2.33763,0,0,1-1.98455-.157,23.18267,23.18267,0,0,1-3.22525-2.50582Z" style="fill:#673112"/><path d="M340.91622,174.2759c-.24226-.04325-.36554,1.45245-.52246,1.71164-.71727,1.18494.54146,1.72425.65308,2.83242.02945.298-2.24674,1.47144-3.11362,2.46893a6.28228,6.28228,0,0,0-1.598,2.687c-.218.87216.2086,1.92553.19492,2.99355-.01479,1.06913-.32651,1.75166-.26965,2.42687a10.32957,10.32957,0,0,0,.26965,2.607c.07365.28445-.38659,1.07861-.5393,2.96617a43.50269,43.50269,0,0,0,.26965,6.83082s.71835-5.84174,1.93179-8.2686,1.07861,2.83134,2.292,3.6403a7.23526,7.23526,0,0,0,4.05738.87951,4.45315,4.45315,0,0,0,2.97674-3.10941c.02524-.4224-.16956-2.11925-.0727-3.70352a17.50147,17.50147,0,0,0,.94486-3.84878s-.08-.789.8837-.88381c1.41988.48882,2.43636-.64565,3.10736-.66045.66464-.01368,2.39.62464,3.42328.37289,2.36474-.56875,2.50161-1.09543,2.64388-1.39248a1.10887,1.10887,0,0,0-.02006-.967c-.15586-.29176-.59721-1.47985-4.44613-2.42471-1.59785-1.08918-3.72767-1.05445-4.33124-1.62115a8.61431,8.61431,0,0,0-2.964-1.83171,5.52038,5.52038,0,0,1-.04953-1.07645c.4087-1.88972-.1359-2.44163-.1359-2.44163S341.65981,174.40965,340.91622,174.2759Z" style="fill:#673112"/><path d="M336.49436,203.94073a1.28361,1.28361,0,0,0,.98272.72148s1.5958-1.74217,1.43886-2.33206a19.581,19.581,0,0,1-1.09964-2.6523c-.01273-.593.91424-2.39526,1.03115-3.8846.11908-1.48632.00744-3.24326.14324-3.76671.137-.52356,1.42311-2.9556,1.25981-3.6182-.16114-.66678-1.36832-1.45783-1.0238-2.8008.34233-1.3461,1.659-2.26669,1.85486-3.60557.19275-1.343-.50242-1.57682-.86578-1.50413a10.64122,10.64122,0,0,0-2.87665,2.96617c-.76258,1.56637.32443,2.2679.26965,3.23582-.02849.52357-.70262,1.66321-.62883,2.78712.06211.95113.59829,2.75661.35918,3.14522-1.01337,1.64953-1.16286,6.78552-1.16286,6.78552A25.92085,25.92085,0,0,0,336.49436,203.94073Z" style="fill:#945c25"/><path d="M342.217,176.42363c.10853.1358.1454.79839.43608,1.08907s1.81594-.07259,1.30727.58148c-.18013.23071-1.16188.36338-1.16188.36338a4.24262,4.24262,0,0,0,.36338,1.52418,2.17045,2.17045,0,0,0,1.81488.72677c.37081-.08.85952-.46348,1.1597-1.936a10.1264,10.1264,0,0,0,.078-1.01542s-.72579.28542-.94378.06743.94378-.94378.94378-.94378l.20226-.96591-.38023-1.97179-3.6993.74888A2.67128,2.67128,0,0,0,342.217,176.42363Z" style="fill:#945c25"/><path d="M345.10531,182.65819a3.92543,3.92543,0,0,0,.05157,2.44909c.2307.36759,2.351-1.31148,2.4838-2.05928a2.52726,2.52726,0,0,1,.56142-1.4957c.29284-.22964.74467.05792,1.19229.12318.95651,1.72006,2.91882,1.05121,3.07791,1.5684.16007.51719-.73.68362-3.47387.7437-.68686.0137-.42767.97215-.42767.97215l1.66106,1.22929,1.46518-1.07235a41.4907,41.4907,0,0,0,5.34353-.04c.36867-.22856,1.09446-.75524.70262-1.16286-2.04247-2.12247-3.41595-1.16813-3.41595-1.16813s-1.34826-1.798-4.8475-2.10985a5.49913,5.49913,0,0,0-3.42219-2.08452A4.42815,4.42815,0,0,1,345.10531,182.65819Z" style="fill:#945c25"/><path d="M341.02474,176.1834c.20643.276.54878,1.05964,1.07861,1.25873.71835.26965-.57621-2.11718.0263-2.00231s1.65156.7794,2.46376.54135c.809-.24118.95424-1.659,1.32821-1.51782.37394.139.16113.72988.29282,1.06912.17064.43921.05684.62991.38346-.06743a6.66289,6.66289,0,0,0-.26965-2.69652c-.21811-.6794-1.0934-1.1734-1.52839-1.52839-.98908-.809-2.05617-.26327-2.96617,0a2.28248,2.28248,0,0,0-1.88756,1.88756c-.37818,1.63583.08737,2.18776.26965,3.41595C340.27369,176.93133,340.378,175.3187,341.02474,176.1834Z" style="fill:#221f20"/><path d="M350.52672,199.92961c-.98272-.72364-.43177-2.74074.01693-2.67538a35.81706,35.81706,0,0,1,8.18751,4.28283c.68252.72784-.95016.6888-.95016.6888S351.50426,200.65012,350.52672,199.92961Z" style="fill:#945c25"/><path d="M356.9342,183.82426c-.22857-.36649-2.2089-1.29981-2.79555-.99016-.58773.30968-1.42935.72051-2.05818.99016C351.39888,184.11712,357.16587,184.19079,356.9342,183.82426Z" style="fill:#c38d2c"/><path d="M348.77722,184.13921a4.325,4.325,0,0,1,1.55675-.18013c.44665.06527,1.05024.57092.98069.79635-.06948.22327-.95221.613-1.17548.61826A4.377,4.377,0,0,1,348.77722,184.13921Z" style="fill:#c38d2c"/><path d="M346.68635,191.50934c.36229-.38127.43391,1.90441.13483,2.96617a3.36155,3.36155,0,0,1-1.61791,2.56169c-.44138.23278-1.23136-.08746-.94378-.5393S346.3208,191.88751,346.68635,191.50934Z" style="fill:#945c25"/><path d="M348.50864,185.48112a6.35646,6.35646,0,0,0-.473,1.66848l-9.81179,14.15469s-.12219,1.34082.315.811c.43392-.5298,10.03614-14.696,10.03614-14.696l1.16813-.89848a2.06692,2.06692,0,0,1-.89848-.36025C348.54866,185.88884,348.60971,185.41058,348.50864,185.48112Z" style="fill:#cc9f2c"/><path d="M336.08149,204.04815a7.75392,7.75392,0,0,0-8.0296,4.45456c-.20742.67413,7.01936,5.275,7.46288,5.11593.44029-.15692,3.39276-4.60089,1.6685-8.80045A1.07563,1.07563,0,0,0,336.08149,204.04815Z" style="fill:#cc9f2c"/><path d="M335.3409,205.45122c.572-.97754,1.46421-.92275,1.322-.54773a29.59317,29.59317,0,0,1-3.54335,4.45768C332.75084,209.44433,334.76686,206.42768,335.3409,205.45122Z" style="fill:#945c25"/><path d="M336.03618,210.19008a7.68619,7.68619,0,0,1-1.07334,1.95605c-.28971.45086.16848.888.455.50986a6.19061,6.19061,0,0,0,1.13869-2.32893,10.93244,10.93244,0,0,0,.67521-3.28C337.1453,206.76474,336.67977,208.61747,336.03618,210.19008Z" style="fill:#dee3e3"/><path d="M344.469,179.25594l1.08918-.29068a.81373.81373,0,0,1-.43608.58148C344.75984,179.692,344.469,179.25594,344.469,179.25594Z" style="fill:#673112"/><path d="M345.19484,187.89753a5.70442,5.70442,0,0,1-2.37206,1.22916,1.59722,1.59722,0,0,1-1.16921-.5393,1.30075,1.30075,0,0,1,.0906-1.52731c.15584-.1169.61091.376,1.6358.61935C344.27,187.89116,345.2959,187.72894,345.19484,187.89753Z" style="fill:#945c25"/><path d="M341.74417,177.89192c0,.217-.3634.14433-.65419-.36337-.43392-.75839-.11584-1.17762.24756-.81424A2.54821,2.54821,0,0,1,341.74417,177.89192Z" style="fill:#945c25"/><polyline points="599.751 -92.065 599.751 248.753 -4.341 248.753 -4.341 -92.065" style="fill:none"/></svg>